<svg xmlns="http://www.w3.org/2000/svg" xmlns:xlink="http://www.w3.org/1999/xlink" width="309.1085205078125" height="120.11920166015625" viewBox="0 0 309.1085205078125 120.11920166015625" fill="none">
<path    stroke="rgba(255, 255, 255, 1)" stroke-width="2"    d="M4.22412 81.6932L20.0197 101.162L50.3252 87.387">
</path>
<path d="M3.67339 76.5504C5.70215 76.5504 7.34678 78.195 7.34678 80.2238C7.34678 82.2526 5.70215 83.8972 3.67339 83.8972C1.64463 83.8972 0 82.2526 0 80.2238C0 78.195 1.64463 76.5504 3.67339 76.5504L3.67339 76.5504Z"   fill="#F9F68F" >
</path>
<path d="M49.774 83.8969C51.8027 83.8969 53.4474 85.5415 53.4474 87.5702C53.4474 89.599 51.8027 91.2436 49.774 91.2436C47.7452 91.2436 46.1006 89.599 46.1006 87.5702C46.1006 85.5415 47.7452 83.8969 49.774 83.8969L49.774 83.8969Z"   fill="#6AEFBE" >
</path>
<ellipse cx="20.204154014587402" cy="101.16203927993774" rx="3.6733922958374023" ry="3.673391819000244"   fill="#82A2F9" >
</ellipse>
<path    stroke="rgba(219, 133, 179, 1)" stroke-width="0.6794999837875366"    d="M50.8505 38.7356L51.2661 53.8361C51.4047 56.4683 53.6212 58.5464 56.2534 58.4079L83.1296 57.161C85.7618 57.0225 87.8398 54.6674 87.5628 52.0352L86.4545 40.3981C86.1774 38.1815 84.3764 36.3805 82.1598 36.242L55.9763 33.8868C53.2056 33.6098 50.712 35.9648 50.8505 38.7356">
</path>
<g opacity="0.52">
<path d="M96.568 50.9269L95.3211 38.5972C95.0441 36.2421 93.1046 34.3025 90.7495 34.164L62.9035 31.6703C59.8558 31.5318 57.3621 34.0254 57.5006 36.9347L57.5006 36.9347L57.9162 53.005C58.0548 55.7757 60.4099 57.9923 63.1806 57.8538L91.8578 56.4684C94.767 56.3298 96.8451 53.8362 96.568 50.9269Z"   fill="#C974BD" >
</path>
</g>
<path d="M121.537 48.3541L121.287 50.2256C121.287 50.4751 121.287 50.5998 121.287 50.8493L121.038 73.6807C121.038 75.053 122.161 76.1759 123.533 76.1759L146.614 76.5502C147.986 76.5502 149.109 75.5521 149.234 74.1797L150.856 54.218C150.981 52.8456 149.858 51.598 148.485 51.4732L135.884 50.5998C134.886 50.4751 134.138 49.9761 133.764 49.1027L133.264 48.1046C132.89 47.2313 132.017 46.6075 131.143 46.6075L124.282 46.1084C122.909 45.9837 121.662 46.9817 121.537 48.3541L121.537 48.3541Z"   fill="#DBC27F" >
</path>
<path d="M126.278 51.3484C125.529 51.3484 124.781 51.9722 124.656 52.7208L120.913 74.055C120.788 75.0531 121.537 75.9264 122.535 75.9264L122.535 75.9264L147.238 76.3006C147.986 76.3006 148.61 75.8016 148.735 75.0531L153.975 53.9684C154.224 52.9703 153.476 51.9722 152.478 51.8475L126.278 51.3484Z"   fill="#EFDA97" >
</path>
<ellipse cx="180.45383548736572" cy="102.68711376190186" rx="8.399147987365723" ry="8.399149894714355" stroke="rgba(255, 255, 255, 1)" stroke-width="2"   >
</ellipse>
<path    stroke="rgba(255, 255, 255, 1)" stroke-width="2"  stroke-linecap="round"  d="M185.823 109.297L187.33 119.119M187.33 119.119L187.33 119.119Z">
</path>
<circle cx="333.12818908691406" cy="92.12080383300781" transform="rotate(-175.0000004397857 304.0377197265625 63.03033447265625)" r="29.090469360351562"   fill="url(#linear_fill_0_27)" >
</circle>
<circle cx="316.2666988372803" cy="74.80924034118652" transform="rotate(-175.0000004397857 295.48779296875 54.03033447265625)" r="20.778905868530273"   fill="url(#linear_fill_0_28)" >
</circle>
<defs>
<linearGradient id="linear_fill_0_27" x1="295.4470195606591" y1="59.84115791679187" x2="366.0467325180398" y2="143.43134081343305" gradientUnits="userSpaceOnUse">
<stop offset="0" stop-color="#FF8C8C" stop-opacity="0.7098" />
<stop offset="1" stop-color="#F1EAB9" stop-opacity="0" />
</linearGradient>
<linearGradient id="linear_fill_0_28" x1="289.3515788059299" y1="51.752351308082496" x2="339.77994322022414" y2="111.45962245681949" gradientUnits="userSpaceOnUse">
<stop offset="0" stop-color="#FF8C8C" stop-opacity="0.7098" />
<stop offset="1" stop-color="#F1EAB9" stop-opacity="0" />
</linearGradient>
</defs>
</svg>
