<svg xmlns="http://www.w3.org/2000/svg" xmlns:xlink="http://www.w3.org/1999/xlink" width="394.0020751953125" height="467.9317321777344" viewBox="0 0 394.0020751953125 467.9317321777344" fill="none">
<g opacity="0.65">
<circle cx="311.3329048156738" cy="5.710590362548828" r="5.246967315673828"   fill="url(#linear_fill_0_450)" >
</circle>
</g>
<g opacity="0.65">
<circle cx="311.33382654190063" cy="5.710596561431885" r="3.8240609169006348"   fill="url(#linear_fill_0_451)" >
</circle>
</g>
<g opacity="0.7">
<path d="M120.726 7.64621C138.81 4.83957 144.109 19.1833 172.169 20.1169C200.23 21.0544 212.376 23.5154 212.079 45.0642C211.78 66.613 174.663 105.232 143.796 83.0974C112.931 60.9587 102.644 10.4529 120.726 7.64621L120.726 7.64621Z"   fill="url(#linear_fill_0_452)" >
</path>
</g>
<g opacity="0.7">
<path d="M202.828 89.7281C184.569 90.9473 180.539 76.1986 152.668 72.8211C124.796 69.4435 112.909 65.9319 115.084 44.4923C117.259 23.0519 157.602 -12.1871 186.42 12.5547C215.239 37.2966 221.087 88.5089 202.828 89.7281L202.828 89.7281Z"   fill="url(#linear_fill_0_453)" >
</path>
</g>
<g opacity="0.7">
<path d="M312.987 64.7927C327.915 62.4763 332.292 74.3142 355.456 75.0857C378.622 75.8611 388.651 77.8923 388.403 95.6833C388.157 113.472 357.515 145.355 332.034 127.08C306.552 108.806 298.059 67.1072 312.987 64.7927L312.987 64.7927Z"   fill="url(#linear_fill_0_469)" >
</path>
</g>
<g opacity="0.7">
<path d="M380.765 132.553C365.692 133.56 362.365 121.384 339.355 118.596C316.346 115.807 306.533 112.908 308.328 95.2088C310.123 77.5091 343.428 48.4173 367.22 68.843C391.011 89.2682 395.839 131.547 380.765 132.553L380.765 132.553Z"   fill="url(#linear_fill_0_470)" >
</path>
</g>
<g opacity="0.7">
<path d="M6.72945 127.002C20.3408 124.888 24.333 135.685 45.456 136.388C66.581 137.092 75.7255 138.947 75.5029 155.17C75.2783 171.392 47.333 200.463 24.0986 183.799C0.862258 167.135 -6.88384 129.111 6.72945 127.002L6.72945 127.002Z"   fill="url(#linear_fill_0_478)" >
</path>
</g>
<g opacity="0.7">
<path d="M68.5386 188.795C54.7928 189.713 51.759 178.61 30.7767 176.067C9.79432 173.525 0.845566 170.881 2.48283 154.741C4.11988 138.6 34.4909 112.071 56.1863 130.697C77.882 149.324 82.2841 187.877 68.5386 188.795L68.5386 188.795Z"   fill="url(#linear_fill_0_479)" >
</path>
</g>
<g opacity="0.17">
<path d="M267.355 371.061C319.83 385.128 371.632 449.992 352.773 461.655C333.914 473.319 300.993 470.311 237.081 439.051C173.169 407.791 164.38 444.403 146.238 431.177C128.095 417.951 214.881 356.994 267.355 371.061L267.355 371.061Z"   fill="url(#linear_fill_0_165)" >
</path>
</g>
<defs>
<linearGradient id="linear_fill_0_450" x1="336.65063448031833" y1="3.027893078107809" x2="249.00953576479515" y2="42.7259047855041" gradientUnits="userSpaceOnUse">
<stop offset="0" stop-color="#FF8C8C"  />
<stop offset="1" stop-color="#6041FF"  />
</linearGradient>
<linearGradient id="linear_fill_0_451" x1="329.78573117374594" y1="3.7554104091070712" x2="265.9117102109867" y2="32.687859558434866" gradientUnits="userSpaceOnUse">
<stop offset="0" stop-color="#FF8C8C"  />
<stop offset="1" stop-color="#6041FF"  />
</linearGradient>
<linearGradient id="linear_fill_0_452" x1="172.1829833984375" y1="-11.728683471679688" x2="157.15457153320312" y2="149.97271728515625" gradientUnits="userSpaceOnUse">
<stop offset="0" stop-color="#FF8C8C"  />
<stop offset="1" stop-color="#6041FF"  />
</linearGradient>
<linearGradient id="linear_fill_0_453" x1="153.54782104492188" y1="82.648193359375" x2="204.6435546875" y2="-74.846923828125" gradientUnits="userSpaceOnUse">
<stop offset="0" stop-color="#FF8C8C"  />
<stop offset="1" stop-color="#6041FF"  />
</linearGradient>
<linearGradient id="linear_fill_0_469" x1="347.017822265625" y1="64.4927978515625" x2="350.67852783203125" y2="189.4731674194336" gradientUnits="userSpaceOnUse">
<stop offset="0" stop-color="#FF8C8C"  />
<stop offset="1" stop-color="#6041FF"  />
</linearGradient>
<linearGradient id="linear_fill_0_470" x1="322.0098876953125" y1="169.59103775024414" x2="403.8555908203125" y2="-32.48121643066406" gradientUnits="userSpaceOnUse">
<stop offset="0" stop-color="#FF8C8C"  />
<stop offset="1" stop-color="#6041FF"  />
</linearGradient>
<linearGradient id="linear_fill_0_478" x1="37.7626953125" y1="126.72802734375" x2="29.4111328125" y2="232.79593658447266" gradientUnits="userSpaceOnUse">
<stop offset="0" stop-color="#FF8C8C"  />
<stop offset="1" stop-color="#6041FF"  />
</linearGradient>
<linearGradient id="linear_fill_0_479" x1="26.490234375" y1="207.65607452392578" x2="66.1103515625" y2="26.825035095214844" gradientUnits="userSpaceOnUse">
<stop offset="0" stop-color="#FF8C8C"  />
<stop offset="1" stop-color="#6041FF"  />
</linearGradient>
<linearGradient id="linear_fill_0_165" x1="-49.597747802734375" y1="249.32105255126953" x2="889.0401611328125" y2="908.35205078125" gradientUnits="userSpaceOnUse">
<stop offset="0" stop-color="#FF8C8C"  />
<stop offset="1" stop-color="#6041FF"  />
</linearGradient>
</defs>
</svg>
