<svg xmlns="http://www.w3.org/2000/svg" xmlns:xlink="http://www.w3.org/1999/xlink" width="265.0673828125" height="127.2889404296875" viewBox="0 0 265.0673828125 127.2889404296875" fill="none">
<path d="M89.4814 26.3326C89.4814 26.3326 95.8578 30.3987 100.016 33.5407C101.772 34.8345 103.158 36.0358 103.528 36.6827C103.713 37.0523 104.082 37.422 104.452 37.7916C106.208 39.2702 109.165 40.4716 109.165 40.4716L109.165 40.4716L106.208 48.3266L101.033 54.4257L91.3297 50.2672C91.3297 50.2672 76.2665 38.8082 77.3755 38.0688L77.3755 38.0688C78.5768 37.422 83.1975 36.4979 85.5077 35.6662C86.3394 35.389 86.9863 34.1876 87.6332 32.8014C88.1877 31.5076 88.5573 30.0291 88.9269 28.8277C89.2965 27.3491 89.4814 26.3326 89.4814 26.3326Z"   fill="#FFF3C4" >
</path>
<path d="M144.928 46.2935C155.555 45.6466 171.635 39.455 173.668 39.9171C175.701 40.2868 177.365 42.2275 175.978 45.9239L175.978 45.9239C175.794 46.4783 175.147 47.0328 174.223 47.6797C168.585 51.6534 151.397 57.7526 148.162 58.307C144.374 58.9539 119.977 57.5677 117.667 59.2311C116.927 59.6932 116.742 61.6339 116.835 64.2214C116.927 66.7165 117.297 69.8585 117.667 72.8157C118.221 76.5122 118.868 80.0239 119.238 81.7796C120.162 86.4927 119.515 86.77 119.515 86.77C116.558 87.6015 113.323 89.5422 110.181 91.945C104.544 96.1958 98.9994 101.925 94.9333 105.714C91.6065 108.856 89.2038 110.612 88.6493 109.041C87.0783 104.605 69.2429 60.0629 62.9588 55.9044C56.6749 51.7458 35.9747 51.7458 29.2286 48.3266C22.4826 44.8149 14.2579 30.9532 13.0566 28.7353C12.9642 28.5505 12.8718 28.3657 12.8718 28.1809C12.5945 25.5933 17.0303 20.6031 19.8951 22.3589C23.1295 24.2995 31.6313 37.6993 38.0077 39.8247C44.3841 41.8578 75.9889 36.0358 80.5171 38.9006C85.0452 41.7653 92.623 50.0824 97.7981 51.8382C102.973 53.5016 104.082 45.8315 106.947 40.1944C106.947 40.1944 106.577 40.1944 107.501 39.5474C108.425 38.9006 112.861 40.3792 114.617 40.7488C116.28 41.1184 134.301 46.9404 144.928 46.2935Z"   fill="url(#linear_fill_0_97)" >
</path>
<g opacity="0.19">
<path d="M112.029 84.552C112.861 84.1824 113.785 83.905 114.617 83.3506C116.557 82.1493 117.851 79.4694 117.666 76.8818C117.574 75.4032 117.204 74.1094 117.574 72.7233C118.128 76.4198 118.775 79.9314 119.145 81.6872C120.161 86.4002 119.514 86.7699 119.514 86.7699L119.514 86.7699C116.557 87.6016 113.323 89.5421 110.181 91.9449C108.702 91.8524 107.131 91.8524 105.837 92.6842C106.946 89.1725 109.164 85.9382 112.029 84.552Z"   fill="#000000" >
</path>
</g>
<path d="M245.658 113.292L245.658 113.292C245.196 114.124 244.733 114.678 244.087 114.955C243.994 114.955 243.994 114.955 243.902 115.048C240.205 116.065 234.661 110.889 232.997 110.242C232.073 109.873 232.258 107.655 233.367 105.714C234.198 104.143 235.492 102.757 237.248 102.48C241.129 102.018 248.153 96.196 248.153 96.196L248.522 96.4732L248.522 96.4732C248.522 96.4732 248.153 105.622 246.489 111.074C246.212 111.906 245.935 112.645 245.658 113.292Z"   fill="#FFF3C4" >
</path>
<g opacity="0.19">
<path d="M245.75 113.292L245.75 113.292C245.38 113.846 244.826 114.309 244.364 114.771C244.271 114.863 244.179 114.955 244.086 114.955C240.39 115.972 234.845 110.797 233.182 110.15C232.258 109.78 232.442 107.563 233.551 105.622C234.383 106.546 234.845 107.47 235.954 108.209C238.172 109.503 240.944 109.503 243.439 109.041C244.548 108.856 245.842 108.671 246.489 109.596C246.489 109.873 246.581 110.242 246.581 110.705L246.581 110.705C246.581 110.797 246.581 110.982 246.581 111.074C246.489 111.813 246.212 112.553 245.75 113.292Z"   fill="#000000" >
</path>
</g>
<path d="M236.231 98.6912C237.432 99.0609 238.079 100.355 237.802 101.556C236.693 106.177 237.155 113.015 234.29 112.738C230.871 112.461 166.922 88.9879 161.193 87.0473C155.463 85.1992 154.632 82.704 158.79 81.4103C162.856 80.1164 170.896 78.2683 176.164 77.8986C181.339 77.5289 205.92 88.2488 215.069 91.4831C221.815 93.9782 231.795 97.2126 236.231 98.6912L236.231 98.6912Z"   fill="#0A4672" >
</path>
<path d="M219.32 98.5062C220.706 99.4304 220.336 103.774 219.505 107.563L219.505 107.563C219.135 108.949 218.765 110.243 218.396 111.352C218.303 111.536 218.303 111.721 218.211 111.906C217.379 113.939 216.64 113.569 215.531 112.553C214.607 111.721 213.498 110.427 211.834 109.688C209.709 108.764 208.23 108.117 207.306 107.747C206.659 107.47 206.382 107.378 206.382 107.378C206.382 107.378 201.577 98.5987 205.366 97.9518C209.155 97.3049 213.683 93.7009 213.683 93.7009C213.683 93.7009 217.194 96.8428 219.32 98.5062Z"   fill="#FFF3C4" >
</path>
<g opacity="0.19">
<path d="M215.346 112.46C214.422 111.629 213.313 110.335 211.649 109.596C209.524 108.671 208.045 108.025 207.121 107.655C207.029 104.975 209.247 104.051 211.742 104.698C212.943 104.975 213.96 105.622 215.069 106.084C216.455 106.731 217.841 107.285 219.32 107.563L219.412 107.563C220.059 107.655 220.706 107.84 221.075 108.302C221.907 109.134 221.168 110.335 220.244 110.705L220.244 110.705C219.689 110.982 218.95 111.074 218.303 111.259C217.933 111.351 217.656 111.444 217.287 111.536C216.64 111.814 216.085 112.276 215.346 112.46Z"   fill="#000000" >
</path>
</g>
<path d="M211.834 92.869C213.59 88.0637 215.715 79.3769 215.808 75.3108C215.808 73.0005 217.379 71.5219 218.95 71.3371C220.151 71.1523 221.445 71.7068 222.184 73.0005C223.94 76.0501 226.99 82.4265 226.343 86.8622L226.343 86.8622C225.696 91.2981 224.864 94.1628 225.326 96.7502C225.788 99.3379 226.25 102.48 225.973 104.236C225.696 105.992 226.62 109.411 224.957 111.721C223.94 113.107 222.739 113.939 221.075 114.124C220.059 114.216 218.857 114.124 217.471 113.662C213.775 112.645 213.775 112.645 213.775 112.645C213.775 112.645 217.748 110.427 217.933 107.285C218.118 104.143 218.857 101.186 216.732 98.5061C214.606 95.8263 213.96 94.7173 212.019 93.8857C210.078 93.0539 211.834 92.869 211.834 92.869Z"   fill="#494949" >
</path>
<path d="M245.01 101.648C244.825 100.354 247.136 94.1628 247.136 94.1628C247.136 94.1628 251.941 90.1891 255.083 86.5851C258.225 82.8886 261.922 79.0997 263.677 78.5453C263.955 78.4529 264.139 78.5453 264.324 78.7301C265.248 79.9314 264.971 85.2913 265.064 90.0042L265.064 90.0042C265.248 95.549 258.687 100.632 256.377 104.143C254.067 107.655 252.034 114.401 250.555 117.358C249.723 118.929 247.69 118.744 245.842 118.005C244.271 117.45 242.885 116.434 242.33 115.787C241.037 114.401 239.188 114.493 237.895 114.031C236.601 113.569 236.508 113.384 238.634 112.738C240.852 111.998 244.456 111.536 245.472 109.041C246.489 106.546 245.287 102.942 245.01 101.648Z"   fill="#494949" >
</path>
<g opacity="0.21">
<path d="M94.9338 105.714C91.607 108.856 89.2043 110.612 88.6498 109.041C87.0788 104.605 69.2434 60.0629 62.9594 55.9043C56.6754 51.7458 35.9752 51.7458 29.2292 48.3266C22.4831 44.8149 14.2585 30.9532 13.0572 28.7353C12.9647 28.5505 12.8723 28.3657 12.8723 28.1808C13.6116 28.4581 14.4433 29.105 15.275 30.1215C16.5688 31.7849 17.2157 33.7256 18.0474 35.5738C20.8197 41.4881 26.3644 45.9239 32.7408 47.4949C36.7145 48.419 40.7806 48.3266 44.8467 48.7886C53.2562 49.6203 61.2036 52.7624 69.151 55.8119C71.0916 56.5512 73.1246 57.3829 74.6957 58.6767C75.897 59.6932 76.8211 60.8945 77.5604 62.1883C84.7686 73.5549 85.4154 88.8029 94.749 98.5061C95.2111 98.9682 95.6731 99.4303 95.9503 100.077C96.4124 101.186 96.0427 102.48 95.6731 103.589L95.6731 103.589C95.4883 104.236 95.2111 104.975 94.9338 105.714Z"   fill="#000000" >
</path>
</g>
<path d="M186.884 91.5755C193.722 93.5161 202.317 95.4567 205.643 96.1036C206.475 96.2884 207.122 96.9352 207.307 97.7669C208.231 100.632 209.617 107.008 208.323 108.302L208.323 108.302C208.046 108.579 207.399 108.672 206.383 108.672C197.788 108.949 164.243 102.48 154.632 102.572C143.912 102.757 134.764 122.071 129.219 124.566C123.674 127.062 112.03 128.54 104.453 125.86C96.8749 123.18 89.8515 113.847 88.9274 109.411C88.7427 108.302 89.3895 106.731 90.5908 104.883C94.3797 99.2456 103.436 91.2981 108.796 89.3575C115.912 86.8625 134.302 75.8655 140.77 76.6972C147.239 77.4365 178.289 89.1728 186.884 91.5755Z"   fill="#0F4E87" >
</path>
<g opacity="0.19">
<path d="M121.456 58.2147C124.32 58.1223 127.093 57.2906 129.957 56.6437C139.106 54.7955 148.902 55.9968 157.773 53.0397C161.932 51.5611 169.325 46.1088 173.945 47.495C173.945 47.495 174.13 47.5873 174.223 47.6798L174.223 47.6798C168.586 51.6535 151.397 57.7526 148.163 58.3071C144.374 58.954 119.977 57.5678 117.667 59.2313C116.927 59.6932 116.743 61.6339 116.835 64.2214L116.835 64.2214C115.726 62.5581 115.911 59.9706 117.574 58.8616C118.683 58.1223 120.162 58.2147 121.456 58.2147Z"   fill="#000000" >
</path>
</g>
<g opacity="0.19">
<path d="M90.6822 104.883C92.0683 104.883 93.5469 104.883 94.8406 105.16C99.0916 106.084 102.141 109.873 105.56 112.645C110.551 116.619 117.019 118.652 123.396 118.19C125.983 118.005 128.571 117.451 130.696 115.972C134.023 113.754 135.779 109.873 138.367 106.731C142.987 101.186 150.472 98.3215 157.588 99.4304C159.806 99.8001 161.839 100.447 164.057 100.909C175.331 103.404 187.437 100.724 198.342 104.605C200.467 105.437 203.794 106.823 206.474 108.672L206.474 108.672C197.88 108.949 164.334 102.48 154.723 102.572C144.004 102.757 134.855 122.071 129.31 124.566C123.765 127.062 112.122 128.54 104.544 125.86C96.9661 123.18 89.9429 113.847 89.0187 109.411C88.8339 108.302 89.4808 106.731 90.6822 104.883Z"   fill="#000000" >
</path>
</g>
<g opacity="0.21">
<path d="M90.4979 29.2898C92.9006 30.0291 95.1185 31.2304 97.4288 32.4318C98.2605 32.8939 99.0922 33.2635 100.016 33.6331C101.772 34.9269 103.158 36.1283 103.528 36.7751C103.713 36.96 103.99 37.3297 104.452 37.6993L104.452 37.6993C102.881 37.7917 101.218 38.3462 99.6467 37.7917C89.851 34.28 80.7947 38.0689 77.3755 38.1613C78.5768 37.5145 83.1974 36.5904 85.5077 35.7587C86.3394 35.4814 86.9863 34.28 87.6332 32.8939C88.1876 31.6001 88.5573 30.1215 88.9269 28.9202C89.4814 29.0126 90.0358 29.105 90.4979 29.2898Z"   fill="#000000" >
</path>
</g>
<path d="M91.5144 31.5075C88.9269 30.7682 83.0125 27.6263 83.3822 26.1477C83.7518 24.6691 85.138 24.8539 85.138 24.8539C85.138 24.8539 81.3491 21.8043 80.7946 18.4775C80.2402 15.1507 82.7353 9.0515 84.6759 7.85019C85.9697 7.01846 90.4054 4.3385 92.993 4.70819C95.5805 5.07779 99.9239 5.63229 102.789 9.88324C105.561 13.9493 107.502 16.9065 110.274 22.636L110.274 22.636C110.274 22.636 111.937 25.4084 112.122 28.458C112.307 30.8607 115.819 33.0785 111.013 34.7419C106.208 36.4054 103.713 36.5902 100.386 35.1116C97.0591 33.633 92.7158 31.1379 92.1613 30.5834C91.6068 30.029 94.1019 32.2468 91.5144 31.5075Z" fill-rule="evenodd"  fill="#FFF3C4" >
</path>
<path d="M75.5413 10.63C81.548 6.00946 76.7399 8.92204 77.9413 8.46C81.915 6.79659 89.0317 2.12853 94.7613 0.65C100.583 -0.828638 106.291 0.00769897 105.551 5.46C104.812 10.9123 104.371 12.2 104.371 12.2C104.371 12.2 97.4412 14.7894 94.7613 16.73C92.1738 18.5783 86.8162 20.4229 89.3113 23.38C91.8988 26.3372 96.1413 28.1935 96.1413 29.21C96.1413 30.2266 92.3591 30.6823 90.1413 27.91C87.9234 25.1377 85.9771 26.8055 84.2213 27.36C82.4655 28.0069 79.8819 24.3989 77.9413 20.61C76.0006 16.8212 69.5345 15.2506 75.5413 10.63Z"   fill="#02203D" >
</path>
<g opacity="0.19">
<path d="M226.343 86.8623L226.343 86.8623C225.696 91.2981 224.865 94.1629 225.327 96.7504C225.789 99.3378 226.251 102.48 225.974 104.236C225.696 105.992 226.62 109.411 224.957 111.721C223.94 113.107 222.739 113.939 221.076 114.124C221.353 112.368 222 110.612 222.37 108.856C222.832 106.361 222.832 103.774 222.739 101.279C222.739 99.3378 222.647 97.4896 222.37 95.6414C222.092 94.4401 221.723 93.1463 221.445 91.945C220.706 88.3409 221.168 84.552 221.168 80.8556C221.168 79.1922 221.076 77.4363 220.706 75.7729C220.337 74.2019 219.505 72.9081 219.043 71.522C220.244 71.3371 221.538 71.8916 222.277 73.1854C223.94 76.0501 226.99 82.4266 226.343 86.8623Z"   fill="#000000" >
</path>
</g>
<g opacity="0.19">
<path d="M245.842 118.005C247.783 114.309 249.816 110.705 251.941 107.193C252.496 106.269 253.142 105.345 253.604 104.328C254.066 103.404 254.436 102.48 254.898 101.648C256.562 98.1366 258.687 94.9945 260.535 91.5754C262.384 88.2485 264.047 84.552 264.324 80.6708C264.324 80.2086 264.324 79.377 264.324 78.7301C265.248 79.9315 264.971 85.2914 265.063 90.0043L265.063 90.0043C265.248 95.549 258.687 100.632 256.377 104.143C254.066 107.655 252.033 114.401 250.555 117.358C249.723 118.929 247.69 118.744 245.842 118.005Z"   fill="#000000" >
</path>
</g>
<path d="M6.77319 10.9923C6.68081 9.60611 7.14284 6.46413 8.15935 10.9923C9.17589 15.5205 14.2586 20.788 16.1068 22.2665C17.955 23.7451 17.8626 23.1906 18.3247 26.0554C18.7867 28.8277 14.7206 28.3657 14.7206 28.3657L14.7206 28.3657C14.7206 28.3657 3.72362 17.2763 2.8919 15.8901C2.0602 14.504 0.396811 8.12753 0.0271591 4.43108C-0.342493 0.73462 3.16915 9.69858 4.00085 11.0847C4.74014 12.4709 5.9415 14.4115 7.14284 14.5964C8.25181 14.7812 6.86563 12.3784 6.77319 10.9923Z"   fill="#FFF3C4" >
</path>
<path d="M190.487 35.7584C187.622 36.8673 183.279 37.8838 180.506 37.6066C177.826 37.237 172.559 39.5472 171.45 41.6727C170.248 43.7058 172.651 46.2009 172.651 46.2009L172.651 46.2009C172.651 46.2009 198.619 41.2107 200.744 40.841C202.87 40.4714 209.431 39.8245 207.675 38.9003C205.827 37.9763 195.847 37.6066 194.46 38.2535C193.074 38.9003 193.536 37.6066 195.477 36.4977C197.418 35.3888 193.352 34.6495 190.487 35.7584Z"   fill="#FFF3C4" >
</path>
<defs>
<linearGradient id="linear_fill_0_97" x1="120.02694702148438" y1="36.885040283203125" x2="49.0089111328125" y2="173.84979248046875" gradientUnits="userSpaceOnUse">
<stop offset="0" stop-color="#EB7373"  />
<stop offset="1" stop-color="#763A3A"  />
</linearGradient>
</defs>
</svg>
