<svg xmlns="http://www.w3.org/2000/svg" xmlns:xlink="http://www.w3.org/1999/xlink" width="533.37841796875" height="309.9059600830078" viewBox="0 0 533.37841796875 309.9059600830078" fill="none">
<path d="M351.635 56.1562C351.635 56.1562 345.601 78.8553 338.705 80.0046C331.809 81.154 313.803 78.0891 310.068 72.7256C306.333 67.2663 307.195 63.2437 309.781 56.8266C312.367 50.4096 321.082 36.5219 321.082 36.5219L334.108 29.626C334.012 29.9133 334.204 30.6796 334.683 31.8288C335.161 33.1697 335.928 34.8937 336.885 36.9051C339.471 42.4601 343.207 49.3561 344.835 50.6969C347.421 52.804 351.635 56.1562 351.635 56.1562L351.635 56.1562Z"   fill="#FFF3C4" >
</path>
<g opacity="0.15">
<path d="M336.694 36.9051C334.97 40.9277 331.33 49.4519 328.457 50.6969C325.296 52.0378 313.229 63.1479 313.229 63.1479C313.229 63.1479 313.133 57.6887 314.569 55.1026C316.006 52.5167 322.136 39.108 323.381 37.6712C324.53 36.3304 331.043 32.3078 334.683 32.0205C335.066 33.1697 335.832 34.8938 336.694 36.9051L336.694 36.9051Z"   fill="#111111" >
</path>
</g>
<path d="M184.121 120.901C180.003 118.89 171.862 114.867 166.881 112.856C165.253 112.186 164.008 111.707 163.337 111.611C150.791 109.695 140.926 118.89 136.328 117.453C133.647 116.591 139.681 112.186 145.236 108.738C148.684 106.631 151.94 104.811 152.898 104.523C155.867 103.566 166.019 99.16 168.988 100.597C183.068 107.205 193.603 106.726 199.062 107.109C204.426 107.397 221.761 108.833 225.114 105.96C225.976 105.29 228.274 103.757 231.339 101.938C240.342 96.3824 255.571 87.7625 255.571 87.7625C255.571 87.7625 264.765 98.1065 268.788 105.002C270.225 107.684 270.991 109.983 269.937 110.845L269.937 110.845C266.393 113.91 235.553 125.594 225.401 128.468C215.249 131.341 191.783 124.637 184.121 120.901Z"   fill="#FFF3C4" >
</path>
<g opacity="0.18">
<path d="M184.122 120.901C180.003 118.89 171.862 114.867 166.882 112.856C167.744 112.665 168.51 112.473 169.276 112.377C176.938 111.228 192.55 120.135 211.035 122.817C229.52 125.499 230.286 119.177 243.886 113.814C257.487 108.546 265.819 103.087 265.819 103.087C265.819 103.087 267.064 103.853 268.789 105.002C270.225 107.684 270.991 109.983 269.938 110.845L269.938 110.845C266.394 113.91 235.554 125.594 225.401 128.468C215.249 131.341 191.784 124.637 184.122 120.901Z"   fill="#2D2B2B" >
</path>
</g>
<path d="M234.979 212.273C232.585 206.813 221.187 180.762 218.122 181.049C214.674 181.432 182.589 189.094 166.786 195.703C157.495 199.534 81.0655 254.223 70.1469 261.598L70.1469 261.598C69.5722 261.981 69.4765 262.843 70.0511 263.322C71.9666 265.046 75.8936 268.494 76.5639 269.356C77.5217 270.601 79.7245 275.677 80.5866 278.167C81.4485 280.657 82.3106 283.243 82.981 284.105C83.5557 284.967 96.7729 277.592 97.3475 277.018C97.9222 276.539 222.049 219.36 234.404 213.709C234.979 213.422 235.171 212.847 234.979 212.273Z"   fill="#0A4672" >
</path>
<path d="M114.204 249.721C116.215 248.572 119.472 246.082 118.705 244.549C117.939 242.921 117.365 241.963 117.939 241.58C118.514 241.197 121.004 241.963 125.889 240.144C130.773 238.324 134.317 237.941 134.317 237.941L148.492 252.116L148.492 252.116C148.492 252.116 144.469 256.234 141.213 259.49C139.393 261.31 137.861 262.843 137.382 263.322C136.041 264.567 121.962 272.708 121.962 272.708C121.962 272.708 121.962 273.57 121.004 273.474C120.046 273.378 117.652 271.367 115.832 269.26C114.491 267.631 111.426 259.874 110.373 255.468C110.086 254.223 109.894 253.265 109.99 252.69C110.277 250.392 112.097 250.871 114.204 249.721Z"   fill="#FFF3C4" >
</path>
<g opacity="0.19">
<path d="M121.962 272.708C121.962 272.708 121.962 273.57 121.004 273.474C120.046 273.378 117.652 271.367 115.832 269.26C114.491 267.632 111.427 259.874 110.373 255.468C111.043 253.84 111.618 253.074 111.618 253.074C111.618 253.074 111.427 260.927 114.204 262.651C116.982 264.375 116.503 264.854 125.506 261.406C134.509 257.958 137.382 256.809 140.255 259.012C140.639 259.012 140.83 259.203 141.213 259.491L141.213 259.491C139.393 261.31 137.861 262.843 137.382 263.322C136.041 264.567 121.962 272.708 121.962 272.708Z"   fill="#212121" >
</path>
</g>
<path d="M48.7884 287.074C45.532 281.902 42.9461 278.167 41.5094 276.156C40.7432 275.102 40.3601 274.432 40.4559 274.336C40.6474 274.049 40.7432 269.93 41.7009 268.398C42.6588 266.77 46.0109 264.663 46.0109 264.663C47.9265 265.237 56.738 270.984 60.2817 269.164C63.9212 267.344 68.9016 265.524 71.0087 263.705C72.4454 262.46 77.9046 271.08 81.3526 276.73L81.3526 276.73C81.8315 277.497 82.2146 278.167 82.5977 278.742L82.5977 278.837C83.4597 280.37 84.0344 281.519 84.0344 281.519L84.0344 281.519C84.0344 281.519 83.9386 281.711 83.747 282.094C83.3639 282.86 82.5019 284.105 81.5441 284.584C80.1075 285.254 65.3579 296.46 62.8677 296.844C60.3774 297.131 53.7688 295.12 48.7884 287.074Z"   fill="#FFF3C4" >
</path>
<g opacity="0.14">
<path d="M82.502 278.646L82.502 278.742L83.7471 281.998L83.7471 281.998C83.364 282.764 82.502 284.009 81.5443 284.488C80.1076 285.159 65.358 296.365 62.8678 296.748C60.3775 297.035 53.769 295.024 48.7886 286.979C45.5321 281.807 42.9462 278.071 41.5095 276.06C42.4673 274.336 44.2871 273.666 46.6815 275.006C51.6619 277.784 52.6196 285.733 67.8482 283.339C78.671 281.615 80.8738 278.359 81.257 276.635L81.257 276.635C81.3527 276.06 81.257 275.677 81.257 275.485L82.502 278.646Z"   fill="#212121" >
</path>
</g>
<path d="M373.951 202.886C376.346 211.602 370.791 226.639 355.275 242.059L355.275 242.059C350.294 246.944 344.739 250.009 339.088 251.924C327.02 255.851 314.953 254.223 309.11 253.169C301.256 251.637 229.328 224.149 222.815 223.957C216.302 223.766 137.191 267.727 137.957 263.609C138.244 262.364 137.67 259.49 136.808 256.138C135.084 249.434 132.115 240.718 131.253 238.228C131.061 237.749 131.157 237.27 131.54 236.983C145.619 222.137 223.294 171.95 245.227 165.054C257.199 161.319 289.189 173.004 293.978 172.621C298.766 172.238 304.992 165.342 320.029 170.322C335.066 175.303 371.653 194.075 373.951 202.886Z"   fill="#0F4E87" >
</path>
<path d="M408.718 83.8357C408.048 84.985 407.186 85.7512 406.324 85.847C400.481 86.6133 386.402 94.7543 381.996 102.991C377.591 111.324 374.43 185.551 374.238 190.052C374.047 194.554 379.219 211.123 369.833 199.822C368.779 198.577 367.055 197.236 364.757 195.99C346.559 185.551 294.361 174.249 294.073 172.525C294.073 172.429 294.073 172.238 294.073 172.142C294.073 170.897 294.744 168.215 295.51 165.629C296.468 162.181 296.372 158.446 295.222 154.998C293.977 151.358 292.636 146.857 292.541 144.367C292.445 139.865 290.625 130.288 288.039 124.158C285.453 118.028 284.208 109.983 283.346 109.408C282.484 108.834 272.715 114.676 269.459 113.239C268.692 112.856 267.351 111.324 265.627 109.025C261.318 103.087 255.092 92.6472 253.368 90.2528C252.985 89.7739 252.41 89.295 251.836 88.8161C251.548 88.6246 251.261 88.3373 250.782 87.7626C249.824 86.6133 260.264 79.43 263.712 77.0356C266.968 74.7369 275.684 70.2354 284.783 66.0212C296.755 60.5619 309.493 55.7731 311.505 57.7844C314.953 61.3281 318.305 68.6072 321.082 71.1931C325.105 74.8327 328.17 79.8131 337.077 75.0242C345.122 70.6185 341.962 51.4631 343.781 49.1645C345.601 46.8658 407.76 54.4322 410.155 58.1675C411.975 61.3281 412.07 77.9933 408.718 83.8357L408.718 83.8357Z"   fill="url(#linear_fill_0_130)" >
</path>
<path d="M299.687 13.5922C299.687 13.5922 296.147 23.9351 297.967 30.3522C298.255 31.3099 302.274 35.3286 302.657 36.3822C303.04 37.4357 303.524 42.2273 302.087 45.2922C300.555 48.357 303.329 49.6968 304.957 49.1222C306.49 48.5474 307.644 49.8928 308.027 51.0422C308.41 52.1915 307.259 52.6675 307.737 53.2422C308.216 53.8168 310.797 54.5791 310.797 54.9622C310.797 55.3453 309.844 56.5032 310.897 56.9822C311.951 57.461 312.623 57.5575 313.197 58.1322C313.772 58.7068 313.291 62.8201 314.057 63.6822C314.824 64.6399 319.038 71.055 326.317 60.2322C333.596 49.4094 336.372 46.1559 336.947 42.6122C337.618 39.0684 341.738 37.0615 342.217 35.9122C342.792 34.7628 348.726 25.3668 345.757 20.4822C342.788 15.5975 316.737 2.00215 316.737 2.00215L305.147 8.13215L299.687 13.5922Z"   fill="#FFF3C4" >
</path>
<path d="M123.015 273.474C123.015 272.133 118.61 271.846 116.79 269.739C114.97 267.632 113.15 264.854 112.193 259.682C111.426 255.851 111.81 251.924 113.533 250.775C115.258 249.721 118.418 247.04 118.993 245.89C119.567 244.837 118.993 244.549 118.227 242.538C117.46 240.527 112.767 238.132 110.564 236.408C108.362 234.684 101.657 227.405 100.125 224.245C98.7839 221.467 96.8683 216.774 95.3359 212.751C93.7077 208.825 91.1217 203.269 89.9724 203.94L89.9724 203.94L89.9724 203.94C88.6315 204.61 87.4822 204.898 86.9076 206.239C86.0455 208.537 86.2371 212.943 85.6625 215.625C84.8004 219.648 90.0682 238.803 93.6119 245.507C95.2401 248.476 101.083 267.057 101.945 270.505C102.806 273.953 100.987 279.029 104.53 280.466C107.978 281.902 115.545 275.39 117.748 275.581C120.046 275.773 123.015 274.815 123.015 273.474Z"   fill="#121D26" >
</path>
<path d="M99.359 281.328C96.5815 276.826 88.8236 244.645 87.4826 240.91C86.1418 237.27 78.2881 220.222 83.8432 206.717C84.0347 206.143 84.5136 205.76 84.9925 205.377C86.7165 204.61 91.218 202.695 89.1109 204.61L89.1109 204.61C88.8236 204.898 87.77 206.143 87.6742 206.526C86.7165 209.016 83.939 217.444 88.1531 228.938C92.6546 241.197 97.0603 250.966 97.7308 252.595C97.8266 252.786 97.8266 252.882 97.9223 253.074C98.497 255.66 103.094 276.06 103.477 277.305C103.861 278.646 106.638 280.083 106.255 280.37C105.872 280.657 102.137 285.829 99.359 281.328Z"   fill="#0B0C0C" >
</path>
<path d="M27.9092 274.623C29.3459 278.167 35.0925 286.308 35.9545 288.798C36.4334 290.331 44.5744 301.441 45.7237 303.739C47.0646 306.23 48.1182 308.528 48.1182 308.528L48.1182 308.528C48.1182 308.528 64.9749 298.376 66.22 296.077C67.465 293.779 61.3353 296.365 58.2705 294.066C55.2056 291.767 43.9997 282.381 42.2757 275.006C40.5518 267.632 45.1491 272.516 46.5857 268.877C48.0224 265.141 51.9492 263.322 40.8391 259.49C29.729 255.659 12.0103 241.676 9.42428 240.048C6.74252 238.42 2.33679 238.898 2.91145 240.048C3.48611 241.293 13.3511 249.147 14.692 250.966C17.6611 254.893 26.3768 271.08 27.9092 274.623Z"   fill="#121D26" >
</path>
<path d="M43.7123 309.773C43.3292 309.678 42.946 309.486 42.7545 309.199C38.3487 304.027 -1.39866 257.288 0.0380037 243.975C1.47465 229.895 19.6723 255.66 20.8216 258.341C21.9709 261.023 36.3375 288.415 38.5403 291.672C40.7432 294.928 47.5433 306.325 48.6926 307.092C49.7462 307.762 47.5433 310.539 43.7123 309.773L43.7123 309.773Z"   fill="#0B0C0C" >
</path>
<path d="M296.726 20.1928C296.726 20.1928 306.207 23.0662 314.061 18.7562C321.819 14.4462 314.827 24.9817 327.566 34.7509L328.044 40.306C328.044 40.306 330.247 36.1876 331.493 31.3988C331.876 29.8663 332.929 29.4832 334.079 29.4832C336.473 29.579 338.293 31.5903 338.388 33.9847C338.484 36.6665 335.419 41.6469 335.324 43.1793C335.132 45.6695 337.431 49.2132 338.771 48.0639C340.112 46.9146 343.752 43.1793 345.284 40.306C346.913 37.2412 349.786 20.4802 346.529 14.0631C343.369 7.64606 332.833 -2.69786 319.137 0.654363C311.571 2.47408 301.323 6.5925 298.258 13.7758C295.48 20.2886 296.726 20.1928 296.726 20.1928L296.726 20.1928Z"   fill="#121D26" >
</path>
<g opacity="0.11">
<path d="M240.725 203.653C265.436 211.794 265.819 222.808 305.758 238.324C320.029 243.783 330.372 248.381 339.184 251.924L339.184 251.924C327.116 255.851 315.048 254.223 309.206 253.169C301.352 251.637 229.424 224.149 222.911 223.957C216.398 223.766 137.286 267.727 138.052 263.609C138.34 262.364 137.765 259.491 136.903 256.138C138.531 250.871 142.171 245.603 149.929 243.4C168.318 238.324 216.015 195.416 240.725 203.653Z"   fill="#2D2B2B" >
</path>
</g>
<g opacity="0.11">
<path d="M406.324 85.847C400.482 86.6132 386.402 94.7543 381.996 102.991C377.591 111.324 374.43 185.551 374.239 190.052C374.047 194.554 379.219 211.123 369.833 199.822C368.779 198.576 367.055 197.236 364.757 195.99C363.224 191.585 359.585 187.754 356.712 183.923C346.655 170.322 344.548 151.263 351.444 135.843C354.987 127.893 360.638 121.093 366.193 114.389C374.047 104.907 381.901 95.4247 389.754 85.9428C394.447 80.1962 403.067 79.7173 408.718 83.8357L408.718 83.8357C408.048 84.985 407.186 85.7512 406.324 85.847Z"   fill="#2D2B2B" >
</path>
</g>
<g opacity="0.11">
<path d="M452.105 72.534C454.691 70.9058 457.086 68.8944 459.672 67.2663C462.258 65.638 465.131 64.2971 468.004 63.0521C476.528 59.3168 485.052 55.4857 493.96 52.9955C496.354 52.4208 499.036 51.942 501.239 52.7082L501.239 52.7082C499.802 52.9955 498.365 53.5701 495.971 54.6237C493.864 55.5815 485.148 58.2632 482.467 59.7956C476.049 63.5309 443.581 79.9088 434.961 78.6637C427.491 77.6102 416.764 80.7708 409.58 82.7821C411.113 81.0581 413.22 79.6214 414.848 79.0468C417.817 77.9933 421.074 78.0891 424.234 78.0891C433.812 78.1848 443.868 77.6102 452.105 72.534Z"   fill="#2D2B2B" >
</path>
</g>
<path d="M403.738 59.6041C409.964 59.221 419.254 59.3168 421.648 58.4548C424.043 57.5928 459.576 50.7926 462.737 49.9307C470.303 47.9194 470.686 47.0573 480.743 43.2263C489.171 39.9698 489.171 40.0656 490.895 38.0543C492.619 36.043 494.056 31.0626 496.546 29.2428C499.036 27.4231 503.155 20.5272 505.453 20.5272C507.752 20.5272 500.377 31.7331 501.335 32.8824C502.293 34.0317 521.927 31.0626 526.716 32.4035C531.026 33.5528 533.803 34.7979 531.888 35.5641C529.685 36.4261 527.578 35.6599 521.544 35.5641C517.138 35.5641 515.797 37.3839 515.797 37.3839C515.797 37.3839 523.938 36.7134 530.451 40.5445C537.059 44.2798 530.642 43.6094 529.014 43.1305L529.014 43.1305C527.386 42.6516 520.969 41.598 516.467 41.5022C511.87 41.4064 517.904 43.6094 519.82 43.9925C521.735 44.3756 526.045 46.4827 528.44 47.4404C530.068 48.0152 530.834 51.3673 526.907 50.4096C521.352 49.0687 513.977 45.6207 512.636 46.6742C511.2 47.7278 512.062 48.3982 514.456 49.2602C516.276 50.0265 523.459 53.3786 523.747 54.049C525.183 57.4013 522.693 56.2519 520.49 55.39C516.563 53.8575 514.36 53.1871 508.422 52.7081C504.783 52.3251 503.059 52.2293 501.239 52.6124C499.802 52.8997 498.366 53.4744 495.971 54.5279C493.864 55.4857 485.148 58.1674 482.467 59.6998C476.05 63.4352 443.581 79.813 434.961 78.5679C427.491 77.5144 416.764 80.675 409.58 82.6864C405.462 83.8356 402.493 84.6019 402.014 83.9314C400.577 82.2075 403.738 59.6041 403.738 59.6041Z"   fill="#FFF3C4" >
</path>
<defs>
<linearGradient id="linear_fill_0_130" x1="284.6747131347656" y1="48.738555908203125" x2="418.06439208984375" y2="250.91629028320312" gradientUnits="userSpaceOnUse">
<stop offset="0" stop-color="#EB7373"  />
<stop offset="1" stop-color="#763A3A"  />
</linearGradient>
</defs>
</svg>
