<svg xmlns="http://www.w3.org/2000/svg" xmlns:xlink="http://www.w3.org/1999/xlink" width="218" height="764" viewBox="0 0 218 764" fill="none">
<g opacity="0.2">
<circle cx="5" cy="5" r="5"   fill="#FBFBFB" >
</circle>
<circle cx="31" cy="5" r="5"   fill="#FBFBFB" >
</circle>
<circle cx="57" cy="5" r="5"   fill="#FBFBFB" >
</circle>
<circle cx="83" cy="5" r="5"   fill="#FBFBFB" >
</circle>
<circle cx="109" cy="5" r="5"   fill="#FBFBFB" >
</circle>
<circle cx="135" cy="5" r="5"   fill="#FBFBFB" >
</circle>
<circle cx="161" cy="5" r="5"   fill="#FBFBFB" >
</circle>
<circle cx="187" cy="5" r="5"   fill="#FBFBFB" >
</circle>
<circle cx="213" cy="5" r="5"   fill="#FBFBFB" >
</circle>
<circle cx="5" cy="31" r="5"   fill="#FBFBFB" >
</circle>
<circle cx="31" cy="31" r="5"   fill="#FBFBFB" >
</circle>
<circle cx="57" cy="31" r="5"   fill="#FBFBFB" >
</circle>
<circle cx="83" cy="31" r="5"   fill="#FBFBFB" >
</circle>
<circle cx="109" cy="31" r="5"   fill="#FBFBFB" >
</circle>
<circle cx="135" cy="31" r="5"   fill="#FBFBFB" >
</circle>
<circle cx="161" cy="31" r="5"   fill="#FBFBFB" >
</circle>
<circle cx="187" cy="31" r="5"   fill="#FBFBFB" >
</circle>
<circle cx="213" cy="31" r="5"   fill="#FBFBFB" >
</circle>
<circle cx="5" cy="57" r="5"   fill="#FBFBFB" >
</circle>
<circle cx="31" cy="57" r="5"   fill="#FBFBFB" >
</circle>
<circle cx="57" cy="57" r="5"   fill="#FBFBFB" >
</circle>
<circle cx="83" cy="57" r="5"   fill="#FBFBFB" >
</circle>
<circle cx="109" cy="57" r="5"   fill="#FBFBFB" >
</circle>
<circle cx="135" cy="57" r="5"   fill="#FBFBFB" >
</circle>
<circle cx="161" cy="57" r="5"   fill="#FBFBFB" >
</circle>
<circle cx="187" cy="57" r="5"   fill="#FBFBFB" >
</circle>
<circle cx="213" cy="57" r="5"   fill="#FBFBFB" >
</circle>
<circle cx="5" cy="83" r="5"   fill="#FBFBFB" >
</circle>
<circle cx="31" cy="83" r="5"   fill="#FBFBFB" >
</circle>
<circle cx="57" cy="83" r="5"   fill="#FBFBFB" >
</circle>
<circle cx="83" cy="83" r="5"   fill="#FBFBFB" >
</circle>
<circle cx="109" cy="83" r="5"   fill="#FBFBFB" >
</circle>
<circle cx="135" cy="83" r="5"   fill="#FBFBFB" >
</circle>
<circle cx="161" cy="83" r="5"   fill="#FBFBFB" >
</circle>
<circle cx="187" cy="83" r="5"   fill="#FBFBFB" >
</circle>
<circle cx="213" cy="83" r="5"   fill="#FBFBFB" >
</circle>
<circle cx="5" cy="109" r="5"   fill="#FBFBFB" >
</circle>
<circle cx="31" cy="109" r="5"   fill="#FBFBFB" >
</circle>
<circle cx="57" cy="109" r="5"   fill="#FBFBFB" >
</circle>
<circle cx="83" cy="109" r="5"   fill="#FBFBFB" >
</circle>
<circle cx="109" cy="109" r="5"   fill="#FBFBFB" >
</circle>
<circle cx="135" cy="109" r="5"   fill="#FBFBFB" >
</circle>
<circle cx="161" cy="109" r="5"   fill="#FBFBFB" >
</circle>
<circle cx="187" cy="109" r="5"   fill="#FBFBFB" >
</circle>
<circle cx="213" cy="109" r="5"   fill="#FBFBFB" >
</circle>
<circle cx="5" cy="135" r="5"   fill="#FBFBFB" >
</circle>
<circle cx="31" cy="135" r="5"   fill="#FBFBFB" >
</circle>
<circle cx="57" cy="135" r="5"   fill="#FBFBFB" >
</circle>
<circle cx="83" cy="135" r="5"   fill="#FBFBFB" >
</circle>
<circle cx="109" cy="135" r="5"   fill="#FBFBFB" >
</circle>
<circle cx="135" cy="135" r="5"   fill="#FBFBFB" >
</circle>
<circle cx="161" cy="135" r="5"   fill="#FBFBFB" >
</circle>
<circle cx="187" cy="135" r="5"   fill="#FBFBFB" >
</circle>
<circle cx="213" cy="135" r="5"   fill="#FBFBFB" >
</circle>
<circle cx="5" cy="161" r="5"   fill="#FBFBFB" >
</circle>
<circle cx="31" cy="161" r="5"   fill="#FBFBFB" >
</circle>
<circle cx="57" cy="161" r="5"   fill="#FBFBFB" >
</circle>
<circle cx="83" cy="161" r="5"   fill="#FBFBFB" >
</circle>
<circle cx="109" cy="161" r="5"   fill="#FBFBFB" >
</circle>
<circle cx="135" cy="161" r="5"   fill="#FBFBFB" >
</circle>
<circle cx="161" cy="161" r="5"   fill="#FBFBFB" >
</circle>
<circle cx="187" cy="161" r="5"   fill="#FBFBFB" >
</circle>
<circle cx="213" cy="161" r="5"   fill="#FBFBFB" >
</circle>
<circle cx="5" cy="187" r="5"   fill="#FBFBFB" >
</circle>
<circle cx="31" cy="187" r="5"   fill="#FBFBFB" >
</circle>
<circle cx="57" cy="187" r="5"   fill="#FBFBFB" >
</circle>
<circle cx="83" cy="187" r="5"   fill="#FBFBFB" >
</circle>
<circle cx="109" cy="187" r="5"   fill="#FBFBFB" >
</circle>
<circle cx="135" cy="187" r="5"   fill="#FBFBFB" >
</circle>
<circle cx="161" cy="187" r="5"   fill="#FBFBFB" >
</circle>
<circle cx="187" cy="187" r="5"   fill="#FBFBFB" >
</circle>
<circle cx="213" cy="187" r="5"   fill="#FBFBFB" >
</circle>
<circle cx="5" cy="213" r="5"   fill="#FBFBFB" >
</circle>
<circle cx="31" cy="213" r="5"   fill="#FBFBFB" >
</circle>
<circle cx="57" cy="213" r="5"   fill="#FBFBFB" >
</circle>
<circle cx="83" cy="213" r="5"   fill="#FBFBFB" >
</circle>
<circle cx="109" cy="213" r="5"   fill="#FBFBFB" >
</circle>
<circle cx="135" cy="213" r="5"   fill="#FBFBFB" >
</circle>
<circle cx="161" cy="213" r="5"   fill="#FBFBFB" >
</circle>
<circle cx="187" cy="213" r="5"   fill="#FBFBFB" >
</circle>
<circle cx="213" cy="213" r="5"   fill="#FBFBFB" >
</circle>
<circle cx="5" cy="239" r="5"   fill="#FBFBFB" >
</circle>
<circle cx="31" cy="239" r="5"   fill="#FBFBFB" >
</circle>
<circle cx="57" cy="239" r="5"   fill="#FBFBFB" >
</circle>
<circle cx="83" cy="239" r="5"   fill="#FBFBFB" >
</circle>
<circle cx="109" cy="239" r="5"   fill="#FBFBFB" >
</circle>
<circle cx="135" cy="239" r="5"   fill="#FBFBFB" >
</circle>
<circle cx="161" cy="239" r="5"   fill="#FBFBFB" >
</circle>
<circle cx="187" cy="239" r="5"   fill="#FBFBFB" >
</circle>
<circle cx="213" cy="239" r="5"   fill="#FBFBFB" >
</circle>
<circle cx="5" cy="265" r="5"   fill="#FBFBFB" >
</circle>
<circle cx="31" cy="265" r="5"   fill="#FBFBFB" >
</circle>
<circle cx="57" cy="265" r="5"   fill="#FBFBFB" >
</circle>
<circle cx="83" cy="265" r="5"   fill="#FBFBFB" >
</circle>
<circle cx="109" cy="265" r="5"   fill="#FBFBFB" >
</circle>
<circle cx="135" cy="265" r="5"   fill="#FBFBFB" >
</circle>
<circle cx="161" cy="265" r="5"   fill="#FBFBFB" >
</circle>
<circle cx="187" cy="265" r="5"   fill="#FBFBFB" >
</circle>
<circle cx="213" cy="265" r="5"   fill="#FBFBFB" >
</circle>
<circle cx="5" cy="291" r="5"   fill="#FBFBFB" >
</circle>
<circle cx="31" cy="291" r="5"   fill="#FBFBFB" >
</circle>
<circle cx="57" cy="291" r="5"   fill="#FBFBFB" >
</circle>
<circle cx="83" cy="291" r="5"   fill="#FBFBFB" >
</circle>
<circle cx="109" cy="291" r="5"   fill="#FBFBFB" >
</circle>
<circle cx="135" cy="291" r="5"   fill="#FBFBFB" >
</circle>
<circle cx="161" cy="291" r="5"   fill="#FBFBFB" >
</circle>
<circle cx="187" cy="291" r="5"   fill="#FBFBFB" >
</circle>
<circle cx="213" cy="291" r="5"   fill="#FBFBFB" >
</circle>
<circle cx="5" cy="317" r="5"   fill="#FBFBFB" >
</circle>
<circle cx="31" cy="317" r="5"   fill="#FBFBFB" >
</circle>
<circle cx="57" cy="317" r="5"   fill="#FBFBFB" >
</circle>
<circle cx="83" cy="317" r="5"   fill="#FBFBFB" >
</circle>
<circle cx="109" cy="317" r="5"   fill="#FBFBFB" >
</circle>
<circle cx="135" cy="317" r="5"   fill="#FBFBFB" >
</circle>
<circle cx="161" cy="317" r="5"   fill="#FBFBFB" >
</circle>
<circle cx="187" cy="317" r="5"   fill="#FBFBFB" >
</circle>
<circle cx="213" cy="317" r="5"   fill="#FBFBFB" >
</circle>
<circle cx="5" cy="343" r="5"   fill="#FBFBFB" >
</circle>
<circle cx="31" cy="343" r="5"   fill="#FBFBFB" >
</circle>
<circle cx="57" cy="343" r="5"   fill="#FBFBFB" >
</circle>
<circle cx="83" cy="343" r="5"   fill="#FBFBFB" >
</circle>
<circle cx="109" cy="343" r="5"   fill="#FBFBFB" >
</circle>
<circle cx="135" cy="343" r="5"   fill="#FBFBFB" >
</circle>
<circle cx="161" cy="343" r="5"   fill="#FBFBFB" >
</circle>
<circle cx="187" cy="343" r="5"   fill="#FBFBFB" >
</circle>
<circle cx="213" cy="343" r="5"   fill="#FBFBFB" >
</circle>
<circle cx="5" cy="369" r="5"   fill="#FBFBFB" >
</circle>
<circle cx="31" cy="369" r="5"   fill="#FBFBFB" >
</circle>
<circle cx="57" cy="369" r="5"   fill="#FBFBFB" >
</circle>
<circle cx="83" cy="369" r="5"   fill="#FBFBFB" >
</circle>
<circle cx="109" cy="369" r="5"   fill="#FBFBFB" >
</circle>
<circle cx="135" cy="369" r="5"   fill="#FBFBFB" >
</circle>
<circle cx="161" cy="369" r="5"   fill="#FBFBFB" >
</circle>
<circle cx="187" cy="369" r="5"   fill="#FBFBFB" >
</circle>
<circle cx="213" cy="369" r="5"   fill="#FBFBFB" >
</circle>
<circle cx="5" cy="395" r="5"   fill="#FBFBFB" >
</circle>
<circle cx="31" cy="395" r="5"   fill="#FBFBFB" >
</circle>
<circle cx="57" cy="395" r="5"   fill="#FBFBFB" >
</circle>
<circle cx="83" cy="395" r="5"   fill="#FBFBFB" >
</circle>
<circle cx="109" cy="395" r="5"   fill="#FBFBFB" >
</circle>
<circle cx="135" cy="395" r="5"   fill="#FBFBFB" >
</circle>
<circle cx="161" cy="395" r="5"   fill="#FBFBFB" >
</circle>
<circle cx="187" cy="395" r="5"   fill="#FBFBFB" >
</circle>
<circle cx="213" cy="395" r="5"   fill="#FBFBFB" >
</circle>
<circle cx="5" cy="421" r="5"   fill="#FBFBFB" >
</circle>
<circle cx="31" cy="421" r="5"   fill="#FBFBFB" >
</circle>
<circle cx="57" cy="421" r="5"   fill="#FBFBFB" >
</circle>
<circle cx="83" cy="421" r="5"   fill="#FBFBFB" >
</circle>
<circle cx="109" cy="421" r="5"   fill="#FBFBFB" >
</circle>
<circle cx="135" cy="421" r="5"   fill="#FBFBFB" >
</circle>
<circle cx="161" cy="421" r="5"   fill="#FBFBFB" >
</circle>
<circle cx="187" cy="421" r="5"   fill="#FBFBFB" >
</circle>
<circle cx="213" cy="421" r="5"   fill="#FBFBFB" >
</circle>
<circle cx="5" cy="447" r="5"   fill="#FBFBFB" >
</circle>
<circle cx="31" cy="447" r="5"   fill="#FBFBFB" >
</circle>
<circle cx="57" cy="447" r="5"   fill="#FBFBFB" >
</circle>
<circle cx="83" cy="447" r="5"   fill="#FBFBFB" >
</circle>
<circle cx="109" cy="447" r="5"   fill="#FBFBFB" >
</circle>
<circle cx="135" cy="447" r="5"   fill="#FBFBFB" >
</circle>
<circle cx="161" cy="447" r="5"   fill="#FBFBFB" >
</circle>
<circle cx="187" cy="447" r="5"   fill="#FBFBFB" >
</circle>
<circle cx="213" cy="447" r="5"   fill="#FBFBFB" >
</circle>
<circle cx="5" cy="473" r="5"   fill="#FBFBFB" >
</circle>
<circle cx="31" cy="473" r="5"   fill="#FBFBFB" >
</circle>
<circle cx="57" cy="473" r="5"   fill="#FBFBFB" >
</circle>
<circle cx="83" cy="473" r="5"   fill="#FBFBFB" >
</circle>
<circle cx="109" cy="473" r="5"   fill="#FBFBFB" >
</circle>
<circle cx="135" cy="473" r="5"   fill="#FBFBFB" >
</circle>
<circle cx="161" cy="473" r="5"   fill="#FBFBFB" >
</circle>
<circle cx="187" cy="473" r="5"   fill="#FBFBFB" >
</circle>
<circle cx="213" cy="473" r="5"   fill="#FBFBFB" >
</circle>
<circle cx="5" cy="499" r="5"   fill="#FBFBFB" >
</circle>
<circle cx="31" cy="499" r="5"   fill="#FBFBFB" >
</circle>
<circle cx="57" cy="499" r="5"   fill="#FBFBFB" >
</circle>
<circle cx="83" cy="499" r="5"   fill="#FBFBFB" >
</circle>
<circle cx="109" cy="499" r="5"   fill="#FBFBFB" >
</circle>
<circle cx="135" cy="499" r="5"   fill="#FBFBFB" >
</circle>
<circle cx="161" cy="499" r="5"   fill="#FBFBFB" >
</circle>
<circle cx="187" cy="499" r="5"   fill="#FBFBFB" >
</circle>
<circle cx="213" cy="499" r="5"   fill="#FBFBFB" >
</circle>
<circle cx="5" cy="525" r="5"   fill="#FBFBFB" >
</circle>
<circle cx="31" cy="525" r="5"   fill="#FBFBFB" >
</circle>
<circle cx="57" cy="525" r="5"   fill="#FBFBFB" >
</circle>
<circle cx="83" cy="525" r="5"   fill="#FBFBFB" >
</circle>
<circle cx="109" cy="525" r="5"   fill="#FBFBFB" >
</circle>
<circle cx="135" cy="525" r="5"   fill="#FBFBFB" >
</circle>
<circle cx="161" cy="525" r="5"   fill="#FBFBFB" >
</circle>
<circle cx="187" cy="525" r="5"   fill="#FBFBFB" >
</circle>
<circle cx="213" cy="525" r="5"   fill="#FBFBFB" >
</circle>
<circle cx="5" cy="551" r="5"   fill="#FBFBFB" >
</circle>
<circle cx="31" cy="551" r="5"   fill="#FBFBFB" >
</circle>
<circle cx="57" cy="551" r="5"   fill="#FBFBFB" >
</circle>
<circle cx="83" cy="551" r="5"   fill="#FBFBFB" >
</circle>
<circle cx="109" cy="551" r="5"   fill="#FBFBFB" >
</circle>
<circle cx="135" cy="551" r="5"   fill="#FBFBFB" >
</circle>
<circle cx="161" cy="551" r="5"   fill="#FBFBFB" >
</circle>
<circle cx="187" cy="551" r="5"   fill="#FBFBFB" >
</circle>
<circle cx="213" cy="551" r="5"   fill="#FBFBFB" >
</circle>
<circle cx="5" cy="577" r="5"   fill="#FBFBFB" >
</circle>
<circle cx="31" cy="577" r="5"   fill="#FBFBFB" >
</circle>
<circle cx="57" cy="577" r="5"   fill="#FBFBFB" >
</circle>
<circle cx="83" cy="577" r="5"   fill="#FBFBFB" >
</circle>
<circle cx="109" cy="577" r="5"   fill="#FBFBFB" >
</circle>
<circle cx="135" cy="577" r="5"   fill="#FBFBFB" >
</circle>
<circle cx="161" cy="577" r="5"   fill="#FBFBFB" >
</circle>
<circle cx="187" cy="577" r="5"   fill="#FBFBFB" >
</circle>
<circle cx="213" cy="577" r="5"   fill="#FBFBFB" >
</circle>
<circle cx="5" cy="603" r="5"   fill="#FBFBFB" >
</circle>
<circle cx="31" cy="603" r="5"   fill="#FBFBFB" >
</circle>
<circle cx="57" cy="603" r="5"   fill="#FBFBFB" >
</circle>
<circle cx="83" cy="603" r="5"   fill="#FBFBFB" >
</circle>
<circle cx="109" cy="603" r="5"   fill="#FBFBFB" >
</circle>
<circle cx="135" cy="603" r="5"   fill="#FBFBFB" >
</circle>
<circle cx="161" cy="603" r="5"   fill="#FBFBFB" >
</circle>
<circle cx="187" cy="603" r="5"   fill="#FBFBFB" >
</circle>
<circle cx="213" cy="603" r="5"   fill="#FBFBFB" >
</circle>
<circle cx="5" cy="629" r="5"   fill="#FBFBFB" >
</circle>
<circle cx="31" cy="629" r="5"   fill="#FBFBFB" >
</circle>
<circle cx="57" cy="629" r="5"   fill="#FBFBFB" >
</circle>
<circle cx="83" cy="629" r="5"   fill="#FBFBFB" >
</circle>
<circle cx="109" cy="629" r="5"   fill="#FBFBFB" >
</circle>
<circle cx="135" cy="629" r="5"   fill="#FBFBFB" >
</circle>
<circle cx="161" cy="629" r="5"   fill="#FBFBFB" >
</circle>
<circle cx="187" cy="629" r="5"   fill="#FBFBFB" >
</circle>
<circle cx="213" cy="629" r="5"   fill="#FBFBFB" >
</circle>
<circle cx="5" cy="655" r="5"   fill="#FBFBFB" >
</circle>
<circle cx="31" cy="655" r="5"   fill="#FBFBFB" >
</circle>
<circle cx="57" cy="655" r="5"   fill="#FBFBFB" >
</circle>
<circle cx="83" cy="655" r="5"   fill="#FBFBFB" >
</circle>
<circle cx="109" cy="655" r="5"   fill="#FBFBFB" >
</circle>
<circle cx="135" cy="655" r="5"   fill="#FBFBFB" >
</circle>
<circle cx="161" cy="655" r="5"   fill="#FBFBFB" >
</circle>
<circle cx="187" cy="655" r="5"   fill="#FBFBFB" >
</circle>
<circle cx="213" cy="655" r="5"   fill="#FBFBFB" >
</circle>
<circle cx="5" cy="681" r="5"   fill="#FBFBFB" >
</circle>
<circle cx="31" cy="681" r="5"   fill="#FBFBFB" >
</circle>
<circle cx="57" cy="681" r="5"   fill="#FBFBFB" >
</circle>
<circle cx="83" cy="681" r="5"   fill="#FBFBFB" >
</circle>
<circle cx="109" cy="681" r="5"   fill="#FBFBFB" >
</circle>
<circle cx="135" cy="681" r="5"   fill="#FBFBFB" >
</circle>
<circle cx="161" cy="681" r="5"   fill="#FBFBFB" >
</circle>
<circle cx="187" cy="681" r="5"   fill="#FBFBFB" >
</circle>
<circle cx="213" cy="681" r="5"   fill="#FBFBFB" >
</circle>
<circle cx="5" cy="707" r="5"   fill="#FBFBFB" >
</circle>
<circle cx="31" cy="707" r="5"   fill="#FBFBFB" >
</circle>
<circle cx="57" cy="707" r="5"   fill="#FBFBFB" >
</circle>
<circle cx="83" cy="707" r="5"   fill="#FBFBFB" >
</circle>
<circle cx="109" cy="707" r="5"   fill="#FBFBFB" >
</circle>
<circle cx="135" cy="707" r="5"   fill="#FBFBFB" >
</circle>
<circle cx="161" cy="707" r="5"   fill="#FBFBFB" >
</circle>
<circle cx="187" cy="707" r="5"   fill="#FBFBFB" >
</circle>
<circle cx="213" cy="707" r="5"   fill="#FBFBFB" >
</circle>
<circle cx="5" cy="733" r="5"   fill="#FBFBFB" >
</circle>
<circle cx="31" cy="733" r="5"   fill="#FBFBFB" >
</circle>
<circle cx="57" cy="733" r="5"   fill="#FBFBFB" >
</circle>
<circle cx="83" cy="733" r="5"   fill="#FBFBFB" >
</circle>
<circle cx="109" cy="733" r="5"   fill="#FBFBFB" >
</circle>
<circle cx="135" cy="733" r="5"   fill="#FBFBFB" >
</circle>
<circle cx="161" cy="733" r="5"   fill="#FBFBFB" >
</circle>
<circle cx="187" cy="733" r="5"   fill="#FBFBFB" >
</circle>
<circle cx="213" cy="733" r="5"   fill="#FBFBFB" >
</circle>
<circle cx="5" cy="759" r="5"   fill="#FBFBFB" >
</circle>
<circle cx="31" cy="759" r="5"   fill="#FBFBFB" >
</circle>
<circle cx="57" cy="759" r="5"   fill="#FBFBFB" >
</circle>
<circle cx="83" cy="759" r="5"   fill="#FBFBFB" >
</circle>
<circle cx="109" cy="759" r="5"   fill="#FBFBFB" >
</circle>
<circle cx="135" cy="759" r="5"   fill="#FBFBFB" >
</circle>
<circle cx="161" cy="759" r="5"   fill="#FBFBFB" >
</circle>
<circle cx="187" cy="759" r="5"   fill="#FBFBFB" >
</circle>
<circle cx="213" cy="759" r="5"   fill="#FBFBFB" >
</circle>
</g>
</svg>
