<svg xmlns="http://www.w3.org/2000/svg" xmlns:xlink="http://www.w3.org/1999/xlink" width="501.984375" height="352.4998779296875" viewBox="0 0 501.984375 352.4998779296875" fill="none">
<path d="M274.909 105.654L272.265 176.021C272.195 179.226 274.39 182.013 277.728 182.766L310.85 190.688L343.961 198.602C347.943 199.566 352.13 197.165 352.891 193.294L376.501 92.3139C377.613 87.5276 373.225 83.2672 368.237 84.1704L280.906 99.1047C277.574 99.659 274.979 102.449 274.909 105.654Z" stroke="rgba(151, 72, 167, 1)" stroke-width="1.822100043296814"   >
</path>
<circle cx="70.74969482421875" cy="342.74993896484375" r="9.74993896484375"   fill="url(#linear_fill_0_162)" >
</circle>
<g opacity="0.83">
<circle cx="206.5" cy="54.5" r="19.5"   fill="url(#linear_fill_0_158)" >
</circle>
</g>
<g opacity="0.45">
<path d="M374.443 182.456L398.052 81.4752C399.164 76.6889 394.778 72.4323 389.789 73.3354L302.454 88.2728C299.122 88.8272 296.528 91.6159 296.458 94.8212L296.458 94.8212L293.816 165.183C293.746 168.389 295.942 171.171 299.28 171.923L365.514 187.766C369.496 188.731 373.682 186.328 374.443 182.456Z"   fill="#9748A7" >
</path>
</g>
<g opacity="0.45">
<path d="M310.909 135.124C310.64 139.226 308.421 142.55 305.932 142.419C303.444 142.289 301.634 138.879 301.903 134.777C302.172 130.675 304.391 127.351 306.88 127.482C309.368 127.612 311.178 131.023 310.909 135.124L310.909 135.124Z"   fill="#9748A7" >
</path>
</g>
<g opacity="0.45">
<path d="M310.907 114.126C310.638 118.228 308.419 121.552 305.93 121.421C303.442 121.291 301.632 117.881 301.901 113.779C302.17 109.677 304.389 106.353 306.878 106.484C309.367 106.614 311.176 110.025 310.907 114.126L310.907 114.126Z"   fill="#9748A7" >
</path>
</g>
<g opacity="0.45">
<path d="M310.074 156.008C309.805 160.109 307.586 163.433 305.097 163.303C302.608 163.172 300.799 159.762 301.068 155.66C301.337 151.559 303.556 148.235 306.045 148.365C308.686 148.477 310.343 151.906 310.074 156.008L310.074 156.008Z"   fill="#9748A7" >
</path>
</g>
<g opacity="0.91">
<circle cx="72.5" cy="148.5" r="8.5"   fill="url(#linear_fill_0_157)" >
</circle>
</g>
<g opacity="0.83">
<circle cx="206.5" cy="54.5" r="13.5"   fill="url(#linear_fill_0_159)" >
</circle>
</g>
<circle cx="70.74971342086792" cy="342.7499575614929" r="6.74995756149292"   fill="url(#linear_fill_0_163)" >
</circle>
<circle cx="7.5" cy="297.5" r="7.5"   fill="url(#linear_fill_0_164)" >
</circle>
<g opacity="0.42">
<path d="M246.631 323.95L249.856 323.554L249.795 323.058L250.291 323.115Q250.421 321.996 250.271 320.775Q250.141 319.716 249.804 318.749L249.671 318.368L249.271 318.417L246.147 318.801Q245.975 318.456 245.771 318.139L247.711 315.808L247.988 315.475L247.697 315.153Q246.159 313.45 244.064 312.49L243.716 312.331L241.537 314.949Q241.185 314.841 240.815 314.759L240.414 311.494L240.003 311.466Q238.832 311.384 237.686 311.525Q236.522 311.668 235.422 312.028L235.032 312.156L235.434 315.435Q235.094 315.6 234.777 315.797L232.341 314.003L232.031 313.775L231.731 314.016Q229.901 315.49 228.85 317.48L228.649 317.862L228.997 318.117L231.445 319.911Q231.322 320.275 231.239 320.642L227.707 321.076L227.676 321.486Q227.595 322.587 227.714 323.555Q227.852 324.681 228.257 325.822L228.391 326.2L232.026 325.754Q232.134 325.943 232.261 326.134L230.274 328.522L229.997 328.855L230.288 329.176Q231.826 330.88 233.921 331.839L234.269 331.999L234.514 331.705L235.244 330.827L235.245 330.825L235.246 330.824L236.55 329.236Q236.847 329.323 237.147 329.386L237.57 332.825L237.981 332.854Q239.152 332.935 240.298 332.794Q241.444 332.654 242.56 332.291L242.952 332.164L242.53 328.725Q242.807 328.591 243.075 328.434L244.735 329.651L245.656 330.326L245.966 330.553L246.265 330.312Q248.095 328.839 249.146 326.848L249.348 326.467L248.999 326.212L246.494 324.375Q246.571 324.16 246.631 323.95ZM246.17 322.999L249.333 322.611Q249.388 321.787 249.278 320.897Q249.187 320.152 248.983 319.46L245.538 319.883L245.389 319.541Q245.118 318.92 244.741 318.406L244.51 318.091L244.76 317.791L246.659 315.509Q245.489 314.317 243.991 313.564L242.088 315.851L241.866 316.118L241.538 316.002Q240.937 315.791 240.272 315.669L239.911 315.603L239.523 312.442Q238.658 312.413 237.808 312.517Q236.947 312.623 236.125 312.858L236.517 316.05L236.172 316.197Q235.567 316.456 235.043 316.817L234.75 317.019L234.463 316.808L232.064 315.041Q230.773 316.156 229.944 317.571L232.651 319.555L232.509 319.914Q232.26 320.542 232.153 321.177L232.091 321.545L228.651 321.968Q228.622 322.742 228.707 323.433Q228.809 324.264 229.073 325.109L232.594 324.677L232.751 324.993Q232.963 325.418 233.292 325.861L233.526 326.177L233.275 326.479L231.326 328.821Q232.496 330.013 233.994 330.766L234.474 330.19L234.476 330.187L235.992 328.34L236.212 328.072L236.54 328.184Q237.102 328.376 237.677 328.467L238.049 328.526L238.461 331.877Q239.326 331.906 240.176 331.802Q241.025 331.697 241.858 331.46L241.447 328.109L241.793 327.962Q242.33 327.734 242.828 327.412L243.117 327.225L243.395 327.429L245.326 328.844L245.932 329.288Q247.223 328.173 248.053 326.757L245.594 324.956L245.277 324.723L245.428 324.36Q245.639 323.851 245.743 323.387L245.819 323.042L246.17 322.999ZM237.36 327.514Q238.49 327.811 239.668 327.667Q240.847 327.522 241.872 326.961Q242.865 326.417 243.578 325.561Q244.293 324.701 244.615 323.659Q244.949 322.577 244.807 321.456L244.807 321.454Q244.669 320.33 244.082 319.361Q243.517 318.428 242.617 317.768Q241.719 317.11 240.626 316.824Q239.497 316.529 238.318 316.674Q237.14 316.819 236.116 317.378Q235.124 317.92 234.412 318.775Q233.698 319.634 233.376 320.676Q233.041 321.759 233.179 322.884Q233.317 324.006 233.904 324.975Q234.469 325.908 235.369 326.568Q236.267 327.227 237.36 327.514ZM243.815 321.578Q243.703 320.665 243.227 319.879Q242.765 319.116 242.025 318.574Q241.282 318.029 240.373 317.792Q239.429 317.545 238.44 317.666Q237.451 317.788 236.595 318.256Q235.771 318.706 235.181 319.415Q234.594 320.12 234.331 320.971Q234.06 321.849 234.172 322.762Q234.283 323.671 234.759 324.457Q235.221 325.219 235.961 325.762Q236.705 326.309 237.614 326.547Q238.558 326.795 239.546 326.674Q240.535 326.553 241.392 326.083Q242.218 325.631 242.809 324.921Q243.397 324.215 243.659 323.364Q243.93 322.487 243.815 321.58L243.815 321.578Z" fill-rule="evenodd"  fill="#FFFFFF" >
</path>
</g>
<g opacity="0.53">
<circle cx="477.4921875" cy="24.4921875" r="24.4921875"   fill="url(#linear_fill_0_441)" >
</circle>
</g>
<circle cx="422.5851469039917" cy="123.5853910446167" r="9.5853910446167"   fill="url(#linear_fill_0_160)" >
</circle>
<circle cx="422.5852589607239" cy="123.58538103103638" r="6.636040210723877"   fill="url(#linear_fill_0_161)" >
</circle>
<defs>
<linearGradient id="linear_fill_0_162" x1="100.22936486359686" y1="339.26281768020635" x2="16.923834629706107" y2="411.3955806733575" gradientUnits="userSpaceOnUse">
<stop offset="0" stop-color="#FF8C8C"  />
<stop offset="1" stop-color="#6041FF"  />
</linearGradient>
<linearGradient id="linear_fill_0_158" x1="265.45970916748047" y1="47.52571377158165" x2="98.84760570526123" y2="191.792142868042" gradientUnits="userSpaceOnUse">
<stop offset="0" stop-color="#FF8C8C"  />
<stop offset="1" stop-color="#6041FF"  />
</linearGradient>
<linearGradient id="linear_fill_0_157" x1="98.20038604736328" y1="145.45992651581764" x2="25.574597358703613" y2="208.34529304504395" gradientUnits="userSpaceOnUse">
<stop offset="0" stop-color="#FF8C8C"  />
<stop offset="1" stop-color="#6041FF"  />
</linearGradient>
<linearGradient id="linear_fill_0_159" x1="247.3182601928711" y1="49.67164799571037" x2="131.97141933441162" y2="149.54840660095215" gradientUnits="userSpaceOnUse">
<stop offset="0" stop-color="#FF8C8C"  />
<stop offset="1" stop-color="#6041FF"  />
</linearGradient>
<linearGradient id="linear_fill_0_163" x1="91.15871520130167" y1="340.33579673772226" x2="33.485657375606934" y2="390.2738620684522" gradientUnits="userSpaceOnUse">
<stop offset="0" stop-color="#FF8C8C"  />
<stop offset="1" stop-color="#6041FF"  />
</linearGradient>
<linearGradient id="linear_fill_0_164" x1="30.17681121826172" y1="294.8175822198391" x2="-33.90476703643799" y2="350.3046703338623" gradientUnits="userSpaceOnUse">
<stop offset="0" stop-color="#FF8C8C"  />
<stop offset="1" stop-color="#6041FF"  />
</linearGradient>
<linearGradient id="linear_fill_0_441" x1="335.1379578486085" y1="-158.25413642451167" x2="537.6437934413552" y2="95.8703117351979" gradientUnits="userSpaceOnUse">
<stop offset="0" stop-color="#1B46B9"  />
<stop offset="1" stop-color="#EF6B9C"  />
</linearGradient>
<linearGradient id="linear_fill_0_160" x1="432.16992205074155" y1="113.99999937624062" x2="401.04882794429386" y2="163.06365815441177" gradientUnits="userSpaceOnUse">
<stop offset="0" stop-color="#FF8C8C"  />
<stop offset="1" stop-color="#6041FF"  />
</linearGradient>
<linearGradient id="linear_fill_0_161" x1="429.22087278060036" y1="116.94934038847907" x2="407.6754991040518" y2="150.91649008760737" gradientUnits="userSpaceOnUse">
<stop offset="0" stop-color="#FF8C8C"  />
<stop offset="1" stop-color="#6041FF"  />
</linearGradient>
</defs>
</svg>
