<svg xmlns="http://www.w3.org/2000/svg" xmlns:xlink="http://www.w3.org/1999/xlink" width="470.4404296875" height="237.335205078125" viewBox="0 0 470.4404296875 237.335205078125" fill="none">
<g opacity="0.53">
<path d="M424.851 211.859L355.891 211.859C353.784 211.859 352.06 210.135 352.06 208.027C352.06 205.92 353.784 204.196 355.891 204.196L424.851 204.196C426.958 204.196 428.682 205.92 428.682 208.027C428.682 210.135 426.958 211.859 424.851 211.859L424.851 211.859Z"   fill="url(#linear_fill_0_144)" >
</path>
</g>
<g opacity="0.69">
<path d="M356.466 3.83109L343.632 3.83109C342.578 3.83109 341.716 2.96909 341.716 1.91553C341.716 0.861984 342.578 0 343.632 0L356.466 0C357.519 0 358.381 0.861984 358.381 1.91553C358.381 2.96909 357.519 3.83109 356.466 3.83109L356.466 3.83109Z"   fill="#FFFFFF" >
</path>
</g>
<g opacity="0.53">
<path d="M401.768 219.904L401.768 221.34C401.768 222.969 400.428 224.405 398.704 224.405L398.704 224.405L355.03 224.405C353.306 224.405 351.965 223.064 351.965 221.34L351.965 219.904C351.965 218.18 353.305 216.839 355.03 216.839L398.704 216.839C400.428 216.839 401.768 218.18 401.768 219.904Z"   fill="url(#linear_fill_0_146)" >
</path>
</g>
<g opacity="0.53">
<path d="M354.455 237.335C353.114 237.335 351.964 236.186 351.964 234.845L351.964 232.163C351.964 230.822 353.114 229.673 354.455 229.673L381.464 229.673C382.805 229.673 383.954 230.822 383.954 232.163L383.954 234.845C383.954 236.282 382.9 237.335 381.464 237.335L381.464 237.335L354.455 237.335Z"   fill="url(#linear_fill_0_147)" >
</path>
</g>
<path d="M75.3707 168.462C75.0834 168.079 74.8918 167.6 74.8918 167.216C74.8918 166.738 75.0834 166.259 75.4665 165.876L78.4356 162.906L78.4356 162.906L75.5623 160.033C74.7961 159.267 74.7003 157.926 75.5623 157.16C75.9454 156.873 76.4243 156.681 76.8074 156.681C77.2863 156.681 77.7651 156.873 78.1482 157.256L81.1174 160.225L81.1174 160.225L83.9906 157.352C84.7569 156.585 86.0977 156.49 86.8639 157.352C87.1513 157.735 87.3428 158.213 87.3428 158.597C87.3428 159.075 87.1513 159.554 86.7682 159.937L83.7991 162.906L83.7991 162.906L86.6724 165.78L86.6724 165.78C87.4386 166.546 87.5344 167.887 86.6724 168.653C86.2893 168.941 85.8104 169.132 85.4273 169.132C84.9484 169.132 84.4695 168.941 84.0864 168.557L81.1174 165.588L81.1174 165.588L78.244 168.462C77.4778 169.228 76.1369 169.324 75.3707 168.462Z"   fill="#FFFFFF" >
</path>
<path d="M0.574646 59.1582L3.54376 56.189L3.54376 56.189L0.670425 53.3157C-0.0957642 52.5495 -0.191559 51.2086 0.670425 50.4424C1.05356 50.1551 1.53241 49.9635 1.91554 49.9635C2.39444 49.9635 2.87329 50.1551 3.25638 50.5382L6.22551 53.5073L6.22551 53.5073L9.09877 50.634C9.86507 49.8677 11.2059 49.772 11.9721 50.634C12.2594 51.0171 12.451 51.4959 12.451 51.8791C12.451 52.3579 12.2594 52.8369 11.8763 53.2199L8.90723 56.189L8.90723 56.189L11.7806 59.0624L11.7806 59.0624C12.5468 59.8286 12.6425 61.1694 11.7806 61.9356C11.3974 62.223 10.9186 62.4145 10.5355 62.4145C10.0565 62.4145 9.57765 62.223 9.19456 61.8398L6.22551 58.8708L6.22551 58.8708L3.35214 61.7441C2.58595 62.5103 1.24504 62.606 0.478882 61.7441C0.191513 61.361 0 60.8821 0 60.499C0 60.02 0.191513 59.5412 0.574646 59.1582Z"   fill="#FFFFFF" >
</path>
<path d="M461.533 133.226L458.66 130.352C457.894 129.586 457.798 128.245 458.66 127.479C459.043 127.192 459.522 127 459.905 127C460.384 127 460.863 127.192 461.246 127.575L464.215 130.544L464.215 130.544L467.088 127.671C467.854 126.904 469.195 126.809 469.962 127.671C470.249 128.054 470.44 128.533 470.44 128.916C470.44 129.395 470.249 129.874 469.866 130.257L466.897 133.226L466.897 133.226L469.77 136.099L469.77 136.099C470.536 136.865 470.632 138.206 469.77 138.972C469.387 139.26 468.908 139.451 468.525 139.451C468.046 139.451 467.567 139.26 467.184 138.877L464.215 135.907L464.215 135.907L461.342 138.781C460.576 139.547 459.235 139.643 458.468 138.781C458.181 138.398 457.99 137.919 457.99 137.536C457.99 137.057 458.181 136.578 458.564 136.195L461.533 133.226L461.533 133.226Z"   fill="#FFFAF9" >
</path>
<path    stroke="rgba(255, 255, 255, 1)" stroke-width="1"    d="M413.357 170.866L403.013 170.866C402.247 170.866 401.577 170.196 401.577 169.429L401.577 159.086C401.577 158.319 402.247 157.649 403.013 157.649L413.357 157.649C414.124 157.649 414.794 158.319 414.794 159.086L414.794 169.429C414.794 170.196 414.124 170.866 413.357 170.866">
</path>
<path    stroke="rgba(255, 255, 255, 1)" stroke-width="1" stroke-linejoin="round" stroke-linecap="round"  d="M404.738 164.64L406.845 166.939L411.633 161.48">
</path>
<defs>
<linearGradient id="linear_fill_0_144" x1="415.451904296875" y1="184.65567016601562" x2="371.71942138671875" y2="237.70913696289062" gradientUnits="userSpaceOnUse">
<stop offset="0" stop-color="#FF8C8C"  />
<stop offset="1" stop-color="#6041FF"  />
</linearGradient>
<linearGradient id="linear_fill_0_146" x1="393.16900634765625" y1="197.5422821044922" x2="364.74298095703125" y2="249.932861328125" gradientUnits="userSpaceOnUse">
<stop offset="0" stop-color="#FF8C8C"  />
<stop offset="1" stop-color="#6041FF"  />
</linearGradient>
<linearGradient id="linear_fill_0_147" x1="378.43023681640625" y1="210.13235473632812" x2="360.1719970703125" y2="263.1858215332031" gradientUnits="userSpaceOnUse">
<stop offset="0" stop-color="#FF8C8C"  />
<stop offset="1" stop-color="#6041FF"  />
</linearGradient>
</defs>
</svg>
