<svg xmlns="http://www.w3.org/2000/svg" xmlns:xlink="http://www.w3.org/1999/xlink" width="172.53948974609375" height="179.49996948242188" viewBox="0 0 172.53948974609375 179.49996948242188" fill="none">
<g filter="url(#filter_tcDeoDiF9tNQm0ZzkcfwX)">
<path d="M168.539 85.89L159.709 85.89L135.619 90.58C135.619 90.58 132.247 108.674 120.649 121.4C111.698 131.219 108.667 138.062 89.6095 142C89.6095 142 65.1133 146.132 61.0395 155.5C56.9656 164.868 39.0395 169.5 39.0395 169.5L22.5395 173.5L89.6095 106.89C89.6095 106.89 30.1333 86.5001 6.03949 30L109.739 76.52C109.739 76.52 121.289 65.9544 137.859 65.65C137.859 65.65 153.979 66.252 155.439 82.12L168.539 85.89Z"   fill="url(#linear_fill_tcDeoDiF9tNQm0ZzkcfwX)" >
</path>
</g>
<g filter="url(#filter_HdTznj6o1Kt6Ef0W1EaVV)">
<path d="M41.2767 2L97.0367 62.29L41.2767 18.56C41.2767 18.56 39.827 4.02118 41.2767 2ZM16.0267 12.49L95.4167 64.57L21.8467 31.45C21.8467 31.45 14.4797 20.1968 16.0267 12.49ZM6.99673 60.78L12.1567 65.2C12.0951 65.468 12.0383 65.7307 11.9867 66C11.9353 66.2692 11.8879 66.5397 11.8467 66.81C11.8057 67.0803 11.7677 67.3588 11.7367 67.63C11.7059 67.9011 11.6772 68.1683 11.6567 68.44C11.6361 68.7116 11.6268 68.988 11.6167 69.26C11.6067 69.532 11.5967 69.7978 11.5967 70.07C11.5967 70.3421 11.6062 70.618 11.6167 70.89C11.6274 71.162 11.6458 71.4283 11.6667 71.7C11.6878 71.9716 11.7155 72.2488 11.7467 72.52C11.778 72.7909 11.8051 73.0597 11.8467 73.33C11.8883 73.6003 11.9447 73.8707 11.9967 74.14C12.0486 74.4092 12.1047 74.6821 12.1667 74.95C12.2289 75.218 12.2945 75.4835 12.3667 75.75C12.439 76.0165 12.5142 76.2752 12.5967 76.54C12.6792 76.8048 12.7643 77.0771 12.8567 77.34C12.9493 77.6029 13.0444 77.8593 13.1467 78.12C13.2492 78.3807 13.3643 78.6417 13.4767 78.9C13.5891 79.1585 13.7046 79.4141 13.8267 79.67C13.9489 79.9259 14.0749 80.177 14.2067 80.43C14.3385 80.6831 14.4752 80.9399 14.6167 81.19C14.7581 81.4401 14.9059 81.6832 15.0567 81.93C15.2076 82.1768 15.3564 82.4266 15.5167 82.67C15.6769 82.9134 15.8472 83.1602 16.0167 83.4C16.1861 83.6398 16.3582 83.8739 16.5367 84.11C16.7152 84.346 16.8993 84.578 17.0867 84.81C17.2741 85.0419 17.4705 85.2722 17.6667 85.5C17.863 85.7276 18.0621 85.9566 18.2667 86.18C18.4715 86.4034 18.6735 86.6212 18.8867 86.84C19.0999 87.0587 19.3254 87.276 19.5467 87.49C19.7682 87.7039 19.9873 87.911 20.2167 88.12C20.4462 88.329 20.6793 88.5361 20.9167 88.74C21.154 88.9438 21.4016 89.1514 21.6467 89.35C21.9433 89.6076 22.2414 89.8584 22.5467 90.11C22.852 90.3616 23.1627 90.6144 23.4767 90.86C23.7906 91.1054 24.1044 91.3409 24.4267 91.58C24.749 91.8191 25.0763 92.0574 25.4067 92.29C25.7371 92.5226 26.0685 92.754 26.4067 92.98C26.7451 93.2061 27.0908 93.4307 27.4367 93.65C27.7828 93.8693 28.1333 94.0777 28.4867 94.29C28.8401 94.5022 29.1961 94.7148 29.5567 94.92C29.9174 95.1252 30.2794 95.3221 30.6467 95.52C31.0146 95.718 31.3926 95.9195 31.7667 96.11C32.1411 96.3005 32.5161 96.487 32.8967 96.67C33.2774 96.853 33.66 97.0245 34.0467 97.2C34.4337 97.3754 34.8241 97.5524 35.2167 97.72C35.6096 97.8877 36.0085 98.0503 36.4067 98.21C36.8052 98.3697 37.2031 98.5282 37.6067 98.68C38.0106 98.8318 38.4179 98.9762 38.8267 99.12C39.2356 99.2636 39.6431 99.4044 40.0567 99.54C40.4705 99.6757 40.8884 99.8028 41.3067 99.93C41.725 100.057 42.1444 100.181 42.5667 100.3C42.9893 100.419 43.4103 100.539 43.8367 100.65C44.2632 100.76 44.6967 100.868 45.1267 100.97C45.5568 101.072 45.9833 101.167 46.4167 101.26C46.8504 101.353 47.2904 101.445 47.7267 101.53C48.1633 101.615 48.5974 101.694 49.0367 101.77C49.476 101.846 49.915 101.913 50.3567 101.98C50.7985 102.047 51.2429 102.111 51.6867 102.17C52.1307 102.229 52.5809 102.29 53.0267 102.34C53.4725 102.39 53.9193 102.429 54.3667 102.47C54.8141 102.511 55.2582 102.548 55.7067 102.58C56.1552 102.612 56.6073 102.637 57.0567 102.66C57.5064 102.683 57.9566 102.706 58.4067 102.72C58.8571 102.734 59.3064 102.75 59.7567 102.75C59.7567 102.75 24.4673 107.041 8.99673 80.24C8.99673 80.24 3.99999 70.5079 6.99673 60.78Z"   fill="url(#linear_fill_HdTznj6o1Kt6Ef0W1EaVV)" >
</path>
</g>
<g filter="url(#filter_8519B69E-816B-408B-9BE1-AC5B835321A0)">
<path     fill="#FFEB3B"  d="M138.04 38.0465C138.325 37.8985 138.585 38.2655 138.359 38.492L100.995 74.9362L121.94 77.9485C122.2 77.9861 122.259 78.3319 122.032 78.4647L40.7779 125.89C40.4919 126.057 40.2044 125.672 40.4456 125.445L85.8984 82.6791L60.5062 79.0092C60.2387 78.9706 60.1746 78.6178 60.4143 78.493L138.04 38.0465Z">
</path>
<path fill-rule="evenodd"  fill="rgba(78, 89, 105, 1)"  d="M104.651 73.7446L139.546 39.7089L139.561 39.694Q140.107 39.1477 140.143 38.3851Q140.174 37.7022 139.776 37.1424Q139.37 36.5734 138.703 36.3854Q137.954 36.1746 137.255 36.5388L59.6287 76.9854Q59.0258 77.2995 58.7448 77.9119Q58.4872 78.4734 58.5968 79.0839Q58.7053 79.6877 59.1347 80.1233Q59.601 80.5963 60.2636 80.6918L82.1654 83.8572L39.2806 124.207C37.5661 125.82 39.6015 128.545 41.6348 127.359L122.889 79.9329Q123.452 79.6043 123.709 79.0099Q123.946 78.4649 123.843 77.8783Q123.738 77.2775 123.316 76.8422Q122.85 76.3621 122.182 76.2659L104.651 73.7446ZM103.117 75.2414L100.995 74.9362L102.53 73.4394L135.485 41.2949L137.361 39.4652L138.359 38.492C138.585 38.2655 138.325 37.8985 138.04 38.0465L136.799 38.6931L134.477 39.903L62.2394 77.542L61.6546 77.8467L60.4143 78.493C60.1746 78.6178 60.2387 78.9706 60.5062 79.0092L61.8846 79.2084L62.5388 79.3029L83.7479 82.3683L85.8984 82.6791L84.3159 84.168L44.1659 121.944L41.4643 124.486L40.4456 125.445C40.2044 125.672 40.4919 126.057 40.7779 125.89L41.9863 125.185L45.1899 123.315L120.362 79.4391L120.833 79.1642L122.032 78.4647C122.259 78.3319 122.2 77.9861 121.94 77.9485L120.554 77.7492L120.017 77.672L103.117 75.2414Z">
</path>
</g>
<defs>
<linearGradient id="linear_fill_tcDeoDiF9tNQm0ZzkcfwX" x1="97.03948974609375" y1="192.99996948242188" x2="97.03948974609375" y2="30" gradientUnits="userSpaceOnUse">
<stop offset="0.5191" stop-color="#A18CD1"  />
<stop offset="1" stop-color="#FF7AD9"  />
</linearGradient>
<filter id="filter_tcDeoDiF9tNQm0ZzkcfwX" x="2.03948974609375" y="28" width="170.5" height="151.49996948242188" filterUnits="userSpaceOnUse" color-interpolation-filters="sRGB">
<feFlood flood-opacity="0" result="feFloodId_tcDeoDiF9tNQm0ZzkcfwX"/>
<feColorMatrix in="SourceAlpha" type="matrix" values="0 0 0 0 0 0 0 0 0 0 0 0 0 0 0 0 0 0 127 0" result="hardAlpha_tcDeoDiF9tNQm0ZzkcfwX"/>
<feOffset dx="0" dy="2"/>
<feGaussianBlur stdDeviation="2"/>
<feComposite in2="hardAlpha_tcDeoDiF9tNQm0ZzkcfwX" operator="out"/>
<feColorMatrix type="matrix" values="0 0 0 0 0 0 0 0 0 0 0 0 0 0 0 0 0 0 0.25 0"/>
<feBlend mode="normal" in2="feFloodId_tcDeoDiF9tNQm0ZzkcfwX" result="dropShadow_1_tcDeoDiF9tNQm0ZzkcfwX"/>
<feBlend mode="normal" in="SourceGraphic" in2="dropShadow_1_tcDeoDiF9tNQm0ZzkcfwX" result="shape_tcDeoDiF9tNQm0ZzkcfwX"/>
</filter>
<linearGradient id="linear_fill_HdTznj6o1Kt6Ef0W1EaVV" x1="51.53948974609375" y1="102.99996948242188" x2="51.53948974609375" y2="2" gradientUnits="userSpaceOnUse">
<stop offset="0" stop-color="#A18CD1"  />
<stop offset="1" stop-color="#FBC2EB"  />
</linearGradient>
<filter id="filter_HdTznj6o1Kt6Ef0W1EaVV" x="0" y="0" width="101.0367431640625" height="113.0411376953125" filterUnits="userSpaceOnUse" color-interpolation-filters="sRGB">
<feFlood flood-opacity="0" result="feFloodId_HdTznj6o1Kt6Ef0W1EaVV"/>
<feColorMatrix in="SourceAlpha" type="matrix" values="0 0 0 0 0 0 0 0 0 0 0 0 0 0 0 0 0 0 127 0" result="hardAlpha_HdTznj6o1Kt6Ef0W1EaVV"/>
<feOffset dx="0" dy="2"/>
<feGaussianBlur stdDeviation="2"/>
<feComposite in2="hardAlpha_HdTznj6o1Kt6Ef0W1EaVV" operator="out"/>
<feColorMatrix type="matrix" values="0 0 0 0 0 0 0 0 0 0 0 0 0 0 0 0 0 0 0.25 0"/>
<feBlend mode="normal" in2="feFloodId_HdTznj6o1Kt6Ef0W1EaVV" result="dropShadow_1_HdTznj6o1Kt6Ef0W1EaVV"/>
<feBlend mode="normal" in="SourceGraphic" in2="dropShadow_1_HdTznj6o1Kt6Ef0W1EaVV" result="shape_HdTznj6o1Kt6Ef0W1EaVV"/>
</filter>
<filter id="filter_8519B69E-816B-408B-9BE1-AC5B835321A0" x="33.56610107421875" y="34.17462158203125" width="110.6082763671875" height="100.37060546875" filterUnits="userSpaceOnUse" color-interpolation-filters="sRGB">
<feFlood flood-opacity="0" result="feFloodId_8519B69E-816B-408B-9BE1-AC5B835321A0"/>
<feGaussianBlur in="feFloodId_8519B69E-816B-408B-9BE1-AC5B835321A0" stdDeviation_bg="10" type="BackgroundImage" />
<feComposite in2="SourceAlpha" operator="in" result="background_Blur_8519B69E-816B-408B-9BE1-AC5B835321A0"/>
<feColorMatrix in="SourceAlpha" type="matrix" values="0 0 0 0 0 0 0 0 0 0 0 0 0 0 0 0 0 0 127 0" result="hardAlpha_8519B69E-816B-408B-9BE1-AC5B835321A0"/>
<feOffset dx="0" dy="2"/>
<feGaussianBlur stdDeviation="2"/>
<feComposite in2="hardAlpha_8519B69E-816B-408B-9BE1-AC5B835321A0" operator="out"/>
<feColorMatrix type="matrix" values="0 0 0 0 0 0 0 0 0 0 0 0 0 0 0 0 0 0 0.25 0"/>
<feBlend mode="normal" in2="feFloodId_8519B69E-816B-408B-9BE1-AC5B835321A0" result="dropShadow_1_8519B69E-816B-408B-9BE1-AC5B835321A0"/>
<feBlend mode="normal" in="SourceGraphic" in2="background_Blur_8519B69E-816B-408B-9BE1-AC5B835321A0" result="shape_8519B69E-816B-408B-9BE1-AC5B835321A0"/>
<feBlend mode="normal" in="SourceGraphic" in2="dropShadow_1_8519B69E-816B-408B-9BE1-AC5B835321A0" result="shape_8519B69E-816B-408B-9BE1-AC5B835321A0"/>
</filter>
</defs>
</svg>
