<svg xmlns="http://www.w3.org/2000/svg" xmlns:xlink="http://www.w3.org/1999/xlink" width="219.7685546875" height="333.3333435058594" viewBox="0 0 219.7685546875 333.3333435058594" fill="none">
<g opacity="0.19">
<path d="M54.9698 288.178C55.4147 285.508 55.28 285.67 58.518 283.093C61.6037 280.534 81.5583 261.81 83.0102 257.272C84.4621 252.735 100.201 233.656 105.066 231.751C109.915 229.703 107.94 208.585 107.94 208.585L108.783 207.9C110.481 209.145 111.963 211.143 112.496 212.966C114.253 219.725 113.1 226.696 110.981 233.35L110.981 233.35C107.544 244.379 101.871 254.811 94.3119 263.731C92.5612 265.835 90.793 267.796 88.6851 269.508C83.8955 273.293 77.9463 275.186 73.1216 278.684C69.866 281.118 67.0028 284.231 63.3725 286.129C60.7551 287.468 57.8976 288.109 55.005 288.465C54.9874 288.321 54.9874 288.321 54.9698 288.178Z"   fill="#000000" >
</path>
</g>
<path d="M89.5453 187.159C80.2292 189.32 72.7628 181.373 69.7176 177.969C66.5202 174.583 62.0984 162.485 67.6782 153.808C73.2404 144.987 82.6793 140.05 82.6793 140.05L83.4757 140.243L126.281 155.33L124.823 158.561C124.823 158.561 138.25 159.673 143.685 171.212C148.95 182.626 140.776 190.313 121.898 200.187L121.898 200.187C103.021 210.061 79.9869 243.985 75.6771 241.608C73.6919 240.544 70.1725 237.053 67.7363 233.574C64.7556 229.435 63.145 225.129 66.5587 223.983C72.9294 221.748 106.649 185.494 105.361 185.071C104.073 184.648 98.8614 184.998 89.5453 187.159Z"   fill="#0F4E87" >
</path>
<g opacity="0.19">
<path d="M67.5083 153.683C73.0705 144.863 82.5094 139.926 82.5094 139.926L83.3058 140.119C83.3761 140.691 83.464 141.407 83.2474 142.16C82.9839 143.791 80.2027 146.312 79.4826 147.999C78.259 150.619 77.5448 153.613 76.9653 156.445C76.6375 158.81 76.4796 161.3 77.3874 163.659C79.2205 168.519 85.2051 170.691 90.3581 172.383C94.8494 173.72 99.3583 175.201 103.85 176.539C105.782 177.173 107.867 177.789 109.143 179.376C111.357 182.301 109.413 186.608 107.481 189.751L107.481 189.751C103.365 196.505 99.249 203.259 95.1329 210.012C94.2254 211.431 93.4701 212.832 92.2054 213.859C90.2673 215.695 87.5797 216.461 85.2668 217.762C80.6235 220.221 77.1221 224.429 75.5356 229.129C74.9501 230.654 74.5521 232.446 73.1351 233.492C71.7005 234.395 69.6686 234.208 68.0583 233.679C67.8885 233.555 67.7362 233.574 67.5664 233.449C64.5856 229.311 62.975 225.004 66.3888 223.858C72.7595 221.623 106.479 185.37 105.191 184.947C103.903 184.524 98.6914 184.873 89.3753 187.034C80.0593 189.195 72.5928 181.248 69.5477 177.844C66.3503 174.459 61.9285 162.36 67.5083 153.683Z"   fill="#000000" >
</path>
</g>
<path d="M30.9141 108.627C30.9141 108.627 10.9409 112.096 8.56963 115.439C6.19833 118.782 10.7246 116.628 13.1077 115.899C15.4909 115.17 15.1456 117.392 12.0774 120.094C9.0093 122.796 1.51443 127.203 1.99468 128.597C2.45736 129.848 23.5606 125.514 26.7283 122.364C29.8959 119.214 34.7499 114.695 34.8611 113.083C34.9722 111.471 30.9141 108.627 30.9141 108.627L30.9141 108.627Z"   fill="#FFF3C4" >
</path>
<path d="M203.574 42.2364C201.454 41.3343 200.364 36.237 200.364 36.237L200.364 36.237C200.364 36.237 203.216 30.5106 201.664 27.9403C200.112 25.37 200.17 19.5506 201.716 20.8138C203.262 22.0771 205.815 25.2509 205.552 26.8817C205.441 28.4937 206.752 19.0331 206.224 14.7386C205.697 10.4441 208.501 5.59529 214.035 9.12973C219.569 12.6642 214.364 25.6543 213.767 28.3431C213.17 31.032 210.085 37.3684 208.398 38.7379C206.73 40.2506 205.693 43.1386 203.574 42.2364Z"   fill="#FFF3C4" >
</path>
<path d="M117.773 55.8229C119.301 53.1651 120.507 50.4015 120.003 47.5572C119.37 42.4039 110.006 30.3307 117.32 26.9625C124.481 23.613 133.457 17.4251 138.317 17.9908C143.177 18.5565 144.021 21.6497 145.467 23.3611C147.066 25.0538 147.014 32.1802 149.052 33.6737C151.224 35.0053 152.547 35.7147 151.488 37.1525L151.488 37.1525C150.428 38.5905 149.333 39.742 149.556 40.2959C149.796 40.993 150.78 41.4534 150.78 41.4534C150.13 43.7128 151.529 46.3018 151.939 47.1233C152.332 47.8016 153.966 49.7806 147.934 52.2648C144.843 53.5163 141.938 55.0353 139.526 56.7846C137.553 58.3346 135.902 59.9905 135.064 61.9822C134.947 62.2872 134.848 62.7354 134.731 63.0404C133.332 68.0073 137.519 73.1601 132.641 76.2292C127.916 79.2796 117.809 78.7769 115.244 76.7669C112.679 74.7569 111.701 71.8256 112.211 68.421C112.72 65.0164 110.665 67.1578 113.738 61.9852C114.646 60.566 115.706 59.1281 116.613 57.709C117 57.0803 117.386 56.4516 117.773 55.8229Z"   fill="#FFF3C4" >
</path>
<path d="M131.642 45.3969C130.583 46.8348 124.906 38.3755 124.906 38.3755C124.906 38.3755 122.238 35.5117 120.236 38.0825C118.386 40.6346 123.207 48.4713 123.705 50.0086C124.185 51.4027 122.667 55.3587 119.025 54.6435C115.365 53.785 96.5083 46.223 102.533 31.0979C108.557 15.9728 125.403 13.4736 130.532 6.15972C135.661 -1.15418 142.624 -0.165355 145.564 6.15778C148.504 12.4809 150.356 17.8178 145.566 21.6026C140.777 25.3875 131.852 31.9997 130.78 34.6015C130.195 36.1264 132.702 43.959 131.642 45.3969Z"   fill="#02203D" >
</path>
<path d="M50.2368 271.032C46.9867 267.217 49.0062 257.234 50.9324 252.783C52.8586 248.333 51.2304 243.883 51.933 242.053C52.1672 241.443 53.145 240.596 54.2927 239.874C54.8665 239.513 55.4403 239.152 56.0317 238.934C56.0317 238.934 56.0317 238.934 56.1839 238.916L56.1839 238.916C58.0577 237.814 60.1187 236.979 60.1187 236.979C60.1187 236.979 60.0368 237.571 59.4338 238.952C58.8308 240.334 60.9037 242.114 62.1041 241.821C63.3045 241.529 63.7085 241.043 66.8296 242.549C69.9156 243.768 70.8878 245.393 68.1301 249.364L68.1301 249.364C65.3723 253.335 62.7147 264.414 62.7325 268.335C62.7328 272.113 61.3509 273.445 58.3295 275.269C58.1949 275.431 58.0426 275.45 57.8904 275.469C54.5821 277.473 53.4869 274.847 50.2368 271.032Z"   fill="#494949" >
</path>
<path d="M37.241 327.554C36.7488 323.546 36.5669 317.029 38.774 311.091C41.1334 305.134 40.9109 304.581 39.886 302.527C38.8612 300.473 38.9077 295.818 43.1646 293.987C43.6037 293.788 43.9082 293.75 44.1951 293.57C47.5913 292.281 47.9309 292.53 47.849 293.121C47.9193 293.694 47.6324 293.874 47.6324 293.874C47.6324 293.874 46.4498 298.088 47.7557 298.654C49.0615 299.221 51.0171 297.527 53.137 298.43C55.409 299.313 57.8803 303.078 57.4119 304.298L57.4119 304.298C56.926 305.375 50.1988 318.552 50.6441 323.438C50.9489 327.178 49.169 330.303 47.3304 331.691C46.7742 332.196 46.0306 332.432 45.5562 332.345C43.2374 332.339 37.7331 331.562 37.241 327.554Z"   fill="#494949" >
</path>
<path d="M206.881 44.0098C204.534 48.8026 201.22 53.2781 197.414 57.5234C178.753 77.9779 147.175 90.1378 145.957 90.2873C144.576 102.953 142.106 114.3 139.085 123.68C133.113 143.012 126.076 154.92 126.076 154.92C105.997 153.752 88.6286 145.713 82.6029 141.949C80.9398 140.991 80.2254 140.206 80.3601 140.045C81.1681 139.074 81.9585 137.959 82.6142 137.007C94.6697 119.398 95.7512 92.9644 95.8037 89.6159C95.7861 89.4728 95.7686 89.3296 95.7686 89.3296C95.142 89.2613 94.533 89.336 93.7718 89.4295C83.8232 90.2151 71.9485 95.4511 61.2272 101.272C47.4671 108.774 35.9966 117.302 33.8827 117.707C33.7305 117.726 33.5783 117.744 33.5607 117.601L33.5607 117.601C33.3205 116.904 32.5182 115.404 31.5637 113.923C29.9942 111.21 28.2549 108.372 28.2549 108.372C51.2887 78.2261 114.604 58.9727 113.878 63.1304C113 67.3068 117.838 77.7562 123.342 78.5334C128.676 79.1862 133.664 66.9492 133.664 66.9492C135.948 66.6688 143.906 67.29 143.906 67.29C167.024 66.7764 197.799 34.227 200.258 35.3781C202.969 36.0624 206.881 44.0098 206.881 44.0098L206.881 44.0098Z"   fill="url(#linear_fill_0_71)" >
</path>
<g opacity="0.21">
<path d="M139.508 56.6414C137.535 58.1914 135.884 59.8473 135.047 61.8391C128.746 60.869 118.604 56.302 113.568 61.8607C113.955 61.2321 117.854 55.2316 118.241 54.6029C122.34 55.2621 126.087 56.8362 130.186 57.4954C132.558 57.9307 134.912 58.2229 137.312 57.6376C137.769 57.5815 138.63 57.0399 139.508 56.6414L139.508 56.6414Z"   fill="#000000" >
</path>
</g>
<g opacity="0.19">
<path d="M56.5435 273.309C57.0529 273.682 57.3926 273.931 57.7498 274.323C57.9372 274.591 58.1246 274.859 58.3296 275.269C58.1949 275.431 58.0427 275.45 57.8904 275.469C54.5821 277.473 53.4869 274.847 50.2369 271.032C46.9867 267.217 49.0063 257.234 50.9324 252.783C52.8586 248.333 51.2305 243.883 51.933 242.053C52.1672 241.443 53.145 240.596 54.2927 239.874C53.8067 240.951 54.0001 242.526 54.1407 243.671C54.4454 247.411 54.1412 251.227 53.8545 255.185C53.6263 257.102 53.5855 259.287 53.3748 261.347L53.3748 261.347C53.1817 263.55 53.1409 265.735 53.5392 267.72C53.955 269.849 54.8277 271.921 56.5435 273.309Z"   fill="#000000" >
</path>
</g>
<g opacity="0.19">
<path d="M56.9272 238.679L56.166 238.773C56.166 238.773 56.166 238.773 56.3182 238.754L56.3182 238.754C56.3183 238.754 56.6228 238.717 56.9272 238.679L56.9272 238.679Z"   fill="#000000" >
</path>
</g>
<g opacity="0.19">
<path d="M93.907 89.2678C83.9584 90.0534 72.0837 95.2894 61.3624 101.11C50.4363 106.52 39.9903 113.325 33.6959 117.44C33.4558 116.743 32.6534 115.243 31.6989 113.762C32.4074 113.239 33.151 113.002 33.8771 112.622C41.4774 109.074 46.4893 102.065 53.4923 97.4268C61.0691 92.4279 70.4555 90.8395 79.6077 89.861C84.3097 89.1384 89.2167 88.8266 93.907 89.2678L93.907 89.2678Z"   fill="#000000" >
</path>
</g>
<g opacity="0.19">
<path d="M172.682 71.3127C174.69 70.049 177.02 68.891 179.216 67.8949C184.486 65.5041 189.738 62.9702 194.598 59.758C195.746 59.0359 196.589 58.3511 197.415 57.5232L197.415 57.5232C178.754 77.9778 147.176 90.1376 145.958 90.2871C144.577 102.953 142.107 114.3 139.086 123.68C138.225 116.665 139.934 109.19 140.138 102.045C140.337 97.3708 139.991 92.0369 143.803 89.0986C146.754 86.702 150.935 86.7699 154.653 85.5868C162.072 83.0775 166.252 75.5895 172.682 71.3127Z"   fill="#000000" >
</path>
</g>
<path d="M63.5599 297.731L63.5599 297.731C63.5599 297.731 57.0021 303.477 56.4634 304.124C55.9423 304.915 53.5294 299.108 51.2106 299.102C48.8918 299.096 47.9315 300.086 46.9594 298.462C46.9418 298.318 46.772 298.194 46.7544 298.051C45.9697 296.694 45.6241 295.138 46.7366 294.13C47.5797 293.445 53.7455 290.799 57.1241 289.367C58.4416 288.769 59.3199 288.371 59.3199 288.371L62.7985 294.047L63.5599 297.731Z"   fill="#FFF3C4" >
</path>
<g opacity="0.19">
<path d="M57.4579 292.087C56.9192 292.734 56.0409 293.133 55.3324 293.655C54.624 294.178 54.1205 295.112 53.4295 295.778C53.0255 296.264 52.4341 296.482 51.8603 296.843C50.4257 297.745 48.6691 298.542 46.9241 298.175C46.1394 296.819 45.7938 295.263 46.9063 294.254C47.7494 293.569 53.9152 290.923 57.2938 289.491C57.8384 290.151 57.9966 291.439 57.4579 292.087L57.4579 292.087Z"   fill="#000000" >
</path>
</g>
<path d="M67.3569 246.843C66.7947 246.041 63.8667 242.331 62.6136 242.195C61.3605 242.058 60.4178 243.191 59.4692 243.017C58.6904 242.967 57.8881 241.467 57.765 240.465C57.7299 240.179 57.6947 239.893 57.6772 239.749C57.8938 238.996 65.1601 232.728 66.542 231.396C66.6766 231.234 66.8289 231.215 66.8289 231.215L67.1509 231.321C67.1334 231.178 77.3575 235.153 75.355 237.724L75.355 237.724C73.3526 240.295 67.9191 247.646 67.3569 246.843Z"   fill="#FFF3C4" >
</path>
<g opacity="0.19">
<path d="M57.4608 240.502C57.4257 240.216 57.3905 239.93 57.373 239.787C57.5895 239.034 64.8559 232.765 66.2378 231.433C66.39 231.414 66.6945 231.377 66.8643 231.501C67.0165 231.483 67.1864 231.607 67.3386 231.588C67.6783 231.837 67.7134 232.124 67.9184 232.534C68.1058 232.802 68.3108 233.213 68.6329 233.318C69.3765 233.082 70.5125 233.524 70.1261 234.152L70.1261 234.152C69.8567 234.476 68.5041 234.787 68.2172 234.968C66.6304 235.889 65.2134 236.935 64.1536 238.373C63.9019 238.84 63.4803 239.182 63.0587 239.525C62.7718 239.705 62.4673 239.742 62.0106 239.799C60.658 240.11 59.44 240.259 58.0874 240.571C57.9352 240.59 57.7829 240.608 57.6307 240.627C57.6307 240.627 57.6307 240.627 57.4608 240.502Z"   fill="#000000" >
</path>
</g>
<path d="M128.512 240.206C121.779 248.298 69.8548 297.394 67.1087 300.201C64.4973 302.847 55.2388 291.633 55.1742 288.589C55.1566 288.446 55.1566 288.446 55.139 288.303C55.5839 285.633 55.4492 285.795 58.6872 283.217C61.7729 280.659 81.7275 261.934 83.1794 257.397C84.6313 252.859 100.37 233.781 105.236 231.876C110.084 229.827 108.109 208.71 108.109 208.71L108.952 208.025L128.046 193.62L132.608 191.752L132.608 191.752L132.579 196.551C132.579 196.551 135.246 232.114 128.512 240.206Z"   fill="#0A4672" >
</path>
<defs>
<linearGradient id="linear_fill_0_71" x1="199.6946258544922" y1="-9.495025634765625" x2="2.608684539794922" y2="239.40634155273438" gradientUnits="userSpaceOnUse">
<stop offset="0" stop-color="#EB7373"  />
<stop offset="1" stop-color="#763A3A"  />
</linearGradient>
</defs>
</svg>
