<svg xmlns="http://www.w3.org/2000/svg" xmlns:xlink="http://www.w3.org/1999/xlink" width="118.297119140625" height="106.3992919921875" viewBox="0 0 118.297119140625 106.3992919921875" fill="none">
<g opacity="0.45">
<rect  x="26.31500244140625" y="0" width="80.82798767089844" height="80.82798767089844" transform="rotate(18.999999609349338 26.31500244140625 0)" rx="12"    fill="#8B5CF6" >
</rect>
</g>
<g opacity="0.55">
<path    stroke="url(#linear_border_0_562_0)" stroke-width="1"  stroke-linecap="round"  d="M30.2845 11.3794L33.7303 11.6204M33.7303 11.6204L33.7303 11.6204Z">
</path>
</g>
<g opacity="0.55">
<path    stroke="url(#linear_border_0_563_0)" stroke-width="1"  stroke-linecap="round"  d="M32.128 9.77698L31.887 13.2228M31.887 13.2228L31.887 13.2228Z">
</path>
</g>
<g opacity="0.85">
<path    stroke="url(#linear_border_0_564_0)" stroke-width="1"  stroke-linecap="round"  d="M69.8519 94.4429L71.8071 94.5796M71.8071 94.5796L71.8071 94.5796Z">
</path>
</g>
<g opacity="0.85">
<path    stroke="url(#linear_border_0_565_0)" stroke-width="1"  stroke-linecap="round"  d="M70.8978 93.5336L70.761 95.4889M70.761 95.4889L70.761 95.4889Z">
</path>
</g>
<g opacity="0.55">
<path    stroke="url(#linear_border_0_566_0)" stroke-width="1"  stroke-linecap="round"  d="M91.4047 42.3972L93.36 42.5339M93.36 42.5339L93.36 42.5339Z">
</path>
</g>
<g opacity="0.55">
<path    stroke="url(#linear_border_0_567_0)" stroke-width="1"  stroke-linecap="round"  d="M92.4507 41.4879L92.314 43.4432M92.314 43.4432L92.314 43.4432Z">
</path>
</g>
<g opacity="0.82">
<path    stroke="url(#linear_border_0_568_0)" stroke-width="1"  stroke-linecap="round"  d="M36.0239 36.2717L37.9791 36.4084M37.9791 36.4084L37.9791 36.4084Z">
</path>
</g>
<g opacity="0.82">
<path    stroke="url(#linear_border_0_569_0)" stroke-width="1"  stroke-linecap="round"  d="M37.0699 35.3624L36.9332 37.3177M36.9332 37.3177L36.9332 37.3177Z">
</path>
</g>
<g opacity="0.65">
<circle cx="14.66314697265625" cy="8.6632080078125" r="2.5"   fill="url(#linear_fill_0_580)" >
</circle>
</g>
<g opacity="0.65">
<circle cx="43.89532470703125" cy="100.601318359375" transform="rotate(15.000000120055857 39.89532470703125 96.601318359375)" r="4"   fill="url(#linear_fill_0_581)" >
</circle>
</g>
<g opacity="0.65">
<circle cx="111.77410888671875" cy="21.9271240234375" transform="rotate(15.000000120055857 104.77410888671875 14.9271240234375)" r="7"   fill="url(#linear_fill_0_582)" >
</circle>
</g>
<g opacity="0.81">
<path fill-rule="evenodd"  fill="url(#linear_border_0_558_0)"  d="M22.8976 42.4767C24.2085 42.2219 25.0646 40.9527 24.8098 39.6418C24.555 38.331 23.2857 37.4749 21.9749 37.7297C20.664 37.9845 19.8079 39.2537 20.0627 40.5645C20.3175 41.8754 21.5868 42.7315 22.8976 42.4767ZM22.1657 38.7113C22.9344 38.5619 23.6787 39.0639 23.8281 39.8326C23.9776 40.6013 23.4755 41.3456 22.7068 41.4951C21.9381 41.6445 21.1938 41.1425 21.0444 40.3737C20.8949 39.605 21.397 38.8607 22.1657 38.7113Z">
</path>
</g>
<g opacity="0.78">
<path fill-rule="evenodd"  fill="url(#linear_border_0_559_0)"  d="M94.0268 31.8503C93.6311 31.9272 93.2498 31.6786 93.1729 31.2828C93.0959 30.887 93.3544 30.5038 93.7502 30.4269C94.1405 30.351 94.5204 30.6158 94.5962 31.0061C94.6721 31.3965 94.4172 31.7744 94.0268 31.8503ZM94.2177 32.8319C93.2813 33.0139 92.3732 32.4099 92.1912 31.4736C92.0092 30.5373 92.623 29.6273 93.5594 29.4453C94.4957 29.2633 95.3959 29.879 95.5779 30.8153C95.7599 31.7516 95.154 32.6499 94.2177 32.8319Z">
</path>
</g>
<g opacity="0.72">
<path fill-rule="evenodd"  fill="url(#linear_border_0_560_0)"  d="M29.2257 62.3596C29.9747 62.214 30.4639 61.4887 30.3183 60.7397C30.1727 59.9906 29.4475 59.5014 28.6984 59.647C27.9493 59.7926 27.4601 60.5179 27.6057 61.2669C27.7513 62.016 28.4766 62.5052 29.2257 62.3596ZM28.8892 60.6286C29.0961 60.5884 29.2965 60.7236 29.3367 60.9305C29.3769 61.1374 29.2418 61.3377 29.0349 61.378C28.8279 61.4182 28.6276 61.283 28.5874 61.0761C28.5471 60.8692 28.6823 60.6689 28.8892 60.6286Z">
</path>
</g>
<g opacity="0.61">
<path fill-rule="evenodd"  fill="url(#linear_border_0_561_0)"  d="M44.7279 78.741C43.9581 78.8907 43.2127 78.3879 43.0631 77.6181C42.9134 76.8482 43.4162 76.1029 44.186 75.9532C44.9559 75.8036 45.7013 76.3063 45.8509 77.0762C46.0005 77.846 45.4978 78.5914 44.7279 78.741ZM44.9187 79.7227C43.6079 79.9775 42.3363 79.1197 42.0814 77.8089C41.8266 76.498 42.6844 75.2264 43.9952 74.9716C45.3061 74.7168 46.5777 75.5745 46.8325 76.8854C47.0873 78.1962 46.2296 79.4679 44.9187 79.7227Z">
</path>
</g>
<defs>
<linearGradient id="linear_border_0_562_0" x1="0" y1="0" x2="0" y2="0" gradientUnits="userSpaceOnUse">
</linearGradient>
<linearGradient id="linear_border_0_563_0" x1="0" y1="0" x2="0" y2="0" gradientUnits="userSpaceOnUse">
</linearGradient>
<linearGradient id="linear_border_0_564_0" x1="0" y1="0" x2="0" y2="0" gradientUnits="userSpaceOnUse">
</linearGradient>
<linearGradient id="linear_border_0_565_0" x1="0" y1="0" x2="0" y2="0" gradientUnits="userSpaceOnUse">
</linearGradient>
<linearGradient id="linear_border_0_566_0" x1="0" y1="0" x2="0" y2="0" gradientUnits="userSpaceOnUse">
</linearGradient>
<linearGradient id="linear_border_0_567_0" x1="0" y1="0" x2="0" y2="0" gradientUnits="userSpaceOnUse">
</linearGradient>
<linearGradient id="linear_border_0_568_0" x1="0" y1="0" x2="0" y2="0" gradientUnits="userSpaceOnUse">
</linearGradient>
<linearGradient id="linear_border_0_569_0" x1="0" y1="0" x2="0" y2="0" gradientUnits="userSpaceOnUse">
</linearGradient>
<linearGradient id="linear_fill_0_580" x1="23.499627351760864" y1="0.46980512142181396" x2="3.4353753328323364" y2="29.616701126098633" gradientUnits="userSpaceOnUse">
<stop offset="0" stop-color="#82A2F9"  />
<stop offset="1" stop-color="#8B5CF6"  />
</linearGradient>
<linearGradient id="linear_fill_0_581" x1="58.03369331359863" y1="87.4918737411499" x2="25.93089008331299" y2="134.1269073486328" gradientUnits="userSpaceOnUse">
<stop offset="0" stop-color="#82A2F9"  />
<stop offset="1" stop-color="#8B5CF6"  />
</linearGradient>
<linearGradient id="linear_fill_0_582" x1="136.51625394821167" y1="-1.014404058456421" x2="80.33634829521179" y2="80.59690475463867" gradientUnits="userSpaceOnUse">
<stop offset="0" stop-color="#82A2F9"  />
<stop offset="1" stop-color="#8B5CF6"  />
</linearGradient>
<linearGradient id="linear_border_0_558_0" x1="0" y1="0" x2="0" y2="0" gradientUnits="userSpaceOnUse">
</linearGradient>
<linearGradient id="linear_border_0_559_0" x1="0" y1="0" x2="0" y2="0" gradientUnits="userSpaceOnUse">
</linearGradient>
<linearGradient id="linear_border_0_560_0" x1="0" y1="0" x2="0" y2="0" gradientUnits="userSpaceOnUse">
</linearGradient>
<linearGradient id="linear_border_0_561_0" x1="0" y1="0" x2="0" y2="0" gradientUnits="userSpaceOnUse">
</linearGradient>
</defs>
</svg>
