<svg xmlns="http://www.w3.org/2000/svg" xmlns:xlink="http://www.w3.org/1999/xlink" width="1920" height="1312" viewBox="0 0 1920 1312" fill="none">
<g  clip-path="url(#clip-path-2_2)">
<path     fill="#FFFFFF"  d="M0 1312L1920 1312L1920 0L0 0L0 1312Z">
</path>
<g opacity="0.71">
<path d="M-66.2184 646.677C-75.922 633.178 -85.7084 620.524 -95.6758 610.983C-100.367 606.493 -107.255 503.044 -111.909 498.843L-102.964 94.6114C-102.884 71.6036 -102.163 43.3562 -101.212 15.436L-99.065 -81.6091L-97.1421 -81.609C-96.443 -95.977 -95.9708 -104.824 -95.9708 -104.824L1118.2 -81.5584L1958.77 -81.5233L1958.77 -52.3959C1983 -50.3934 1996.1 -47.987 1995.94 -45.1214C1993.91 -9.35365 1989.13 491.738 1989.13 797.259C1989.13 1102.78 1916.16 1293.14 1710.57 1293.14C1504.98 1293.14 1466.84 1105.23 1205.69 888.609C944.545 671.985 630.678 754.443 518.002 961.679C405.325 1168.91 135.905 957.26 -66.2184 687.029L-66.2184 646.677Z" fill-rule="evenodd"  fill="url(#linear_fill_2_1)" >
</path>
</g>
</g>
<defs>
<clipPath id="clip-path-2_2">
<path d="M0 1312L1920 1312L1920 0L0 0L0 1312Z" fill="white"/>
</clipPath>
<linearGradient id="linear_fill_2_1" x1="1366.2828369140625" y1="107.81982421875" x2="417.646484375" y2="1797.2440185546875" gradientUnits="userSpaceOnUse">
<stop offset="0" stop-color="#FF8C8C"  />
<stop offset="1" stop-color="#8B5CF6" stop-opacity="0.79" />
</linearGradient>
</defs>
</svg>
