<svg xmlns="http://www.w3.org/2000/svg" xmlns:xlink="http://www.w3.org/1999/xlink" width="416.1103515625" height="193.74002075195312" viewBox="0 0 416.1103515625 193.74002075195312" fill="none">
<path    stroke="rgba(255, 255, 255, 1)" stroke-width="2"    d="M4.22412 50.0284L20.0197 69.4974L50.3252 55.7222">
</path>
<path d="M3.67339 44.8856C5.70215 44.8856 7.34678 46.5303 7.34678 48.559C7.34678 50.5878 5.70215 52.2324 3.67339 52.2324C1.64463 52.2324 0 50.5878 0 48.559C0 46.5303 1.64463 44.8856 3.67339 44.8856L3.67339 44.8856Z"   fill="#F9F68F" >
</path>
<path d="M49.774 52.2321C51.8027 52.2321 53.4474 53.8767 53.4474 55.9054C53.4474 57.9342 51.8027 59.5788 49.774 59.5788C47.7452 59.5788 46.1006 57.9342 46.1006 55.9054C46.1006 53.8767 47.7452 52.2321 49.774 52.2321L49.774 52.2321Z"   fill="#6AEFBE" >
</path>
<ellipse cx="20.204154014587402" cy="69.49724435806274" rx="3.6733922958374023" ry="3.673391819000244"   fill="#82A2F9" >
</ellipse>
<path    stroke="rgba(219, 133, 179, 1)" stroke-width="0.6794999837875366"    d="M50.8505 7.07082L51.2661 22.1713C51.4047 24.8035 53.6212 26.8816 56.2534 26.7431L83.1296 25.4962C85.7618 25.3577 87.8398 23.0026 87.5628 20.3704L86.4545 8.73333C86.1774 6.51673 84.3764 4.71573 82.1598 4.57718L55.9763 2.22204C53.2056 1.94498 50.712 4.30004 50.8505 7.07082">
</path>
<g opacity="0.52">
<path d="M96.568 19.2621L95.3211 6.93236C95.0441 4.57726 93.1046 2.63774 90.7495 2.49916L62.9035 0.00550949C59.8558 -0.133025 57.3621 2.36063 57.5006 5.26991L57.5006 5.26991L57.9162 21.3402C58.0548 24.1109 60.4099 26.3275 63.1806 26.189L91.8578 24.8036C94.767 24.665 96.8451 22.1714 96.568 19.2621Z"   fill="#C974BD" >
</path>
</g>
<path d="M121.537 16.6893L121.287 18.5608C121.287 18.8103 121.287 18.935 121.287 19.1846L121.038 42.0159C121.038 43.3882 122.161 44.5111 123.533 44.5111L146.614 44.8854C147.986 44.8854 149.109 43.8873 149.234 42.5149L150.856 22.5532C150.981 21.1808 149.858 19.9332 148.485 19.8084L135.884 18.935C134.886 18.8103 134.138 18.3113 133.764 17.4379L133.264 16.4398C132.89 15.5665 132.017 14.9427 131.143 14.9427L124.282 14.4436C122.909 14.3189 121.662 15.317 121.537 16.6893L121.537 16.6893Z"   fill="#DBC27F" >
</path>
<path d="M126.278 19.6836C125.529 19.6836 124.781 20.3074 124.656 21.056L120.913 42.3902C120.788 43.3883 121.537 44.2616 122.535 44.2616L122.535 44.2616L147.238 44.6358C147.986 44.6358 148.61 44.1368 148.735 43.3883L153.975 22.3036C154.224 21.3055 153.476 20.3074 152.478 20.1827L126.278 19.6836Z"   fill="#EFDA97" >
</path>
<ellipse cx="180.45383548736572" cy="71.02231884002686" rx="8.399147987365723" ry="8.399149894714355" stroke="rgba(255, 255, 255, 1)" stroke-width="2"   >
</ellipse>
<path    stroke="rgba(255, 255, 255, 1)" stroke-width="2"  stroke-linecap="round"  d="M185.823 77.6317L187.33 87.4544M187.33 87.4544L187.33 87.4544Z">
</path>
<circle cx="440.13002014160156" cy="222.83045959472656" transform="rotate(-175.0000004397857 411.03955078125 193.739990234375)" r="29.090469360351562"   fill="url(#linear_fill_0_27)" >
</circle>
<circle cx="424.2627925872803" cy="205.51456260681152" transform="rotate(-175.0000004397857 403.48388671875 184.73565673828125)" r="20.778905868530273"   fill="url(#linear_fill_0_28)" >
</circle>
<defs>
<linearGradient id="linear_fill_0_27" x1="402.4488506153466" y1="190.55081367851062" x2="473.0485635727273" y2="274.1409965751518" gradientUnits="userSpaceOnUse">
<stop offset="0" stop-color="#FF8C8C" stop-opacity="0.7098" />
<stop offset="1" stop-color="#F1EAB9" stop-opacity="0" />
</linearGradient>
<linearGradient id="linear_fill_0_28" x1="397.3476725559299" y1="182.4576735737075" x2="447.77603697022414" y2="242.1649447224445" gradientUnits="userSpaceOnUse">
<stop offset="0" stop-color="#FF8C8C" stop-opacity="0.7098" />
<stop offset="1" stop-color="#F1EAB9" stop-opacity="0" />
</linearGradient>
</defs>
</svg>
