<svg xmlns="http://www.w3.org/2000/svg" xmlns:xlink="http://www.w3.org/1999/xlink" width="520.05810546875" height="722.9446716308594" viewBox="0 0 520.05810546875 722.9446716308594" fill="none">
<g opacity="0.65">
<circle cx="502.57299041748047" cy="17.48509979248047" r="17.48509979248047"   fill="url(#linear_fill_0_448)" >
</circle>
</g>
<g opacity="0.65">
<circle cx="502.5715026855469" cy="17.485076904296875" r="7.743377685546875"   fill="url(#linear_fill_0_449)" >
</circle>
</g>
<g opacity="0.65">
<circle cx="311.3329048156738" cy="260.7235298156738" r="5.246967315673828"   fill="url(#linear_fill_0_450)" >
</circle>
</g>
<g opacity="0.65">
<circle cx="311.33382654190063" cy="260.7235360145569" r="3.8240609169006348"   fill="url(#linear_fill_0_451)" >
</circle>
</g>
<g opacity="0.7">
<path d="M120.726 262.659C138.81 259.853 144.109 274.196 172.169 275.13C200.23 276.067 212.376 278.528 212.079 300.077C211.78 321.626 174.663 360.245 143.796 338.11C112.931 315.972 102.644 265.466 120.726 262.659L120.726 262.659Z"   fill="url(#linear_fill_0_452)" >
</path>
</g>
<g opacity="0.7">
<path d="M202.828 344.741C184.569 345.96 180.539 331.212 152.668 327.834C124.796 324.456 112.909 320.945 115.084 299.505C117.259 278.065 157.602 242.826 186.42 267.568C215.239 292.31 221.087 343.522 202.828 344.741L202.828 344.741Z"   fill="url(#linear_fill_0_453)" >
</path>
</g>
<g opacity="0.7">
<path d="M312.987 319.806C327.915 317.489 332.292 329.327 355.456 330.099C378.622 330.874 388.651 332.905 388.403 350.696C388.157 368.485 357.515 400.368 332.034 382.093C306.552 363.819 298.059 322.12 312.987 319.806L312.987 319.806Z"   fill="url(#linear_fill_0_469)" >
</path>
</g>
<g opacity="0.7">
<path d="M380.765 387.566C365.692 388.573 362.365 376.397 339.355 373.609C316.346 370.82 306.533 367.921 308.328 350.222C310.123 332.522 343.428 303.43 367.22 323.856C391.011 344.281 395.839 386.56 380.765 387.566L380.765 387.566Z"   fill="url(#linear_fill_0_470)" >
</path>
</g>
<g opacity="0.7">
<path d="M6.72945 382.015C20.3408 379.901 24.333 390.698 45.456 391.401C66.581 392.104 75.7255 393.96 75.5029 410.183C75.2783 426.405 47.333 455.476 24.0986 438.812C0.862258 422.147 -6.88384 384.124 6.72945 382.015L6.72945 382.015Z"   fill="url(#linear_fill_0_478)" >
</path>
</g>
<g opacity="0.7">
<path d="M68.5386 443.808C54.7928 444.726 51.759 433.623 30.7767 431.08C9.79432 428.538 0.845566 425.894 2.48283 409.754C4.11988 393.613 34.4909 367.084 56.1863 385.71C77.882 404.337 82.2841 442.89 68.5386 443.808L68.5386 443.808Z"   fill="url(#linear_fill_0_479)" >
</path>
</g>
<g opacity="0.17">
<path d="M267.355 626.074C319.83 640.141 371.632 705.005 352.773 716.668C333.914 728.332 300.993 725.324 237.081 694.064C173.169 662.804 164.38 699.416 146.238 686.19C128.095 672.964 214.881 612.007 267.355 626.074L267.355 626.074Z"   fill="url(#linear_fill_0_165)" >
</path>
</g>
<defs>
<linearGradient id="linear_fill_0_448" x1="586.9423037888373" y1="8.545225211721117" x2="294.88533739876584" y2="140.83568072749767" gradientUnits="userSpaceOnUse">
<stop offset="0" stop-color="#FF8C8C"  />
<stop offset="1" stop-color="#6041FF"  />
</linearGradient>
<linearGradient id="linear_fill_0_449" x1="539.9349416283221" y1="13.526001682432252" x2="410.5958229905227" y2="72.11159589746967" gradientUnits="userSpaceOnUse">
<stop offset="0" stop-color="#FF8C8C"  />
<stop offset="1" stop-color="#6041FF"  />
</linearGradient>
<linearGradient id="linear_fill_0_450" x1="336.65063448031833" y1="258.0408325312328" x2="249.00953576479515" y2="297.7388442386291" gradientUnits="userSpaceOnUse">
<stop offset="0" stop-color="#FF8C8C"  />
<stop offset="1" stop-color="#6041FF"  />
</linearGradient>
<linearGradient id="linear_fill_0_451" x1="329.78573117374594" y1="258.76834986223207" x2="265.9117102109867" y2="287.70079901155987" gradientUnits="userSpaceOnUse">
<stop offset="0" stop-color="#FF8C8C"  />
<stop offset="1" stop-color="#6041FF"  />
</linearGradient>
<linearGradient id="linear_fill_0_452" x1="172.1829833984375" y1="243.2842559814453" x2="157.15457153320312" y2="404.98565673828125" gradientUnits="userSpaceOnUse">
<stop offset="0" stop-color="#FF8C8C"  />
<stop offset="1" stop-color="#6041FF"  />
</linearGradient>
<linearGradient id="linear_fill_0_453" x1="153.54782104492188" y1="337.6611328125" x2="204.6435546875" y2="180.166015625" gradientUnits="userSpaceOnUse">
<stop offset="0" stop-color="#FF8C8C"  />
<stop offset="1" stop-color="#6041FF"  />
</linearGradient>
<linearGradient id="linear_fill_0_469" x1="347.017822265625" y1="319.5057373046875" x2="350.67852783203125" y2="444.4861068725586" gradientUnits="userSpaceOnUse">
<stop offset="0" stop-color="#FF8C8C"  />
<stop offset="1" stop-color="#6041FF"  />
</linearGradient>
<linearGradient id="linear_fill_0_470" x1="322.0098876953125" y1="424.60397720336914" x2="403.8555908203125" y2="222.53172302246094" gradientUnits="userSpaceOnUse">
<stop offset="0" stop-color="#FF8C8C"  />
<stop offset="1" stop-color="#6041FF"  />
</linearGradient>
<linearGradient id="linear_fill_0_478" x1="37.7626953125" y1="381.740966796875" x2="29.4111328125" y2="487.80887603759766" gradientUnits="userSpaceOnUse">
<stop offset="0" stop-color="#FF8C8C"  />
<stop offset="1" stop-color="#6041FF"  />
</linearGradient>
<linearGradient id="linear_fill_0_479" x1="26.490234375" y1="462.6690139770508" x2="66.1103515625" y2="281.83797454833984" gradientUnits="userSpaceOnUse">
<stop offset="0" stop-color="#FF8C8C"  />
<stop offset="1" stop-color="#6041FF"  />
</linearGradient>
<linearGradient id="linear_fill_0_165" x1="-49.597747802734375" y1="504.33399200439453" x2="889.0401611328125" y2="1163.364990234375" gradientUnits="userSpaceOnUse">
<stop offset="0" stop-color="#FF8C8C"  />
<stop offset="1" stop-color="#6041FF"  />
</linearGradient>
</defs>
</svg>
